<svg xmlns="http://www.w3.org/2000/svg" width="22.5" height="12.029" viewBox="0 0 22.5 12.029" fill="none">
  <g id="Group_28" data-name="Group 28" transform="translate(1312.013 -842.482)">
    <path id="Path_47" data-name="Path 47" d="M-1307.415,849.883h.639c2.949,0,12.9,0,15.849,0a1.288,1.288,0,0,0,1.287-.848,1.243,1.243,0,0,0-.3-1.511,1.939,1.939,0,0,0-1.122-.4c-2.9-.032-12.8-.018-15.7-.018h-.676c.719-.751,1.375-1.379,1.958-2.068a2.534,2.534,0,0,0,.55-1.125,1.243,1.243,0,0,0-.788-1.316,1.251,1.251,0,0,0-1.47.29q-2.221,2.3-4.417,4.626a1.366,1.366,0,0,0,.032,1.974q2.142,2.273,4.3,4.526a1.306,1.306,0,0,0,1.874.173,1.4,1.4,0,0,0,.156-1.977c-.55-.646-1.164-1.237-1.748-1.853C-1307.109,850.234-1307.222,850.1-1307.415,849.883Z" fill="#fff" fill-rule="evenodd"/>
  </g>
</svg>
