<svg xmlns="http://www.w3.org/2000/svg" width="12.048" height="12.049" viewBox="0 0 12.048 12.049">
  <g id="Group_25" data-name="Group 25" transform="translate(-559.75 -116.11)">
    <path id="Path_56" data-name="Path 56" d="M568.457,116.11h.188a.524.524,0,0,1,.379.6c-.009.107,0,.215,0,.329.148,0,.277,0,.406,0a2.245,2.245,0,0,1,2.371,2.086v6.942a2.106,2.106,0,0,1-2.3,2.091q-3.724.009-7.447,0a2.085,2.085,0,0,1-2.3-2.091v-6.942a2.115,2.115,0,0,1,2.136-2.072c.209-.013.42,0,.64,0,0-.132.007-.238,0-.342a.523.523,0,0,1,.378-.6h.188a.534.534,0,0,1,.377.611c-.008.1,0,.2,0,.308h4.614c0-.107.007-.208,0-.308A.534.534,0,0,1,568.457,116.11Zm2.4,4.651H560.691v.138q0,2.435,0,4.87a1.387,1.387,0,0,0,1.442,1.447q3.641,0,7.282,0a1.387,1.387,0,0,0,1.442-1.446q0-2.435,0-4.87ZM560.7,119.8h10.149a1.493,1.493,0,0,0-1.827-1.8c0,.3,0,.595,0,.892a.47.47,0,1,1-.939,0c0-.3,0-.6,0-.91h-4.614v.134c0,.259,0,.518,0,.776a.47.47,0,1,1-.939,0c0-.137,0-.275,0-.412v-.488A1.5,1.5,0,0,0,560.7,119.8Z" fill="#f37b71" fill-rule="evenodd"/>
    <path id="Path_57" data-name="Path 57" d="M634.367,396.528c.153,0,.305,0,.458,0a.469.469,0,0,1,.008.938q-.476.01-.951,0a.469.469,0,0,1,0-.938C634.045,396.524,634.206,396.528,634.367,396.528Z" transform="translate(-71.36 -271.617)" fill="#f37b71" fill-rule="evenodd"/>
    <path id="Path_58" data-name="Path 58" d="M811.469,396.529c.153,0,.306,0,.458,0a.469.469,0,0,1,0,.939q-.47.008-.94,0a.469.469,0,0,1,.009-.939C811.155,396.526,811.312,396.529,811.469,396.529Z" transform="translate(-242.909 -271.618)" fill="#f37b71" fill-rule="evenodd"/>
    <path id="Path_59" data-name="Path 59" d="M811.468,308.063c.153,0,.305,0,.458,0a.469.469,0,0,1,0,.939q-.47.008-.94,0a.469.469,0,0,1,.008-.939C811.155,308.06,811.311,308.063,811.468,308.063Z" transform="translate(-242.909 -185.928)" fill="#f37b71" fill-rule="evenodd"/>
    <path id="Path_60" data-name="Path 60" d="M634.357,308.063c.153,0,.305,0,.458,0a.469.469,0,0,1,.009.939q-.47.008-.94,0a.469.469,0,0,1,0-.939C634.044,308.06,634.2,308.063,634.357,308.063Z" transform="translate(-71.357 -185.928)" fill="#f37b71" fill-rule="evenodd"/>
    <path id="Path_61" data-name="Path 61" d="M722.807,308.063c.153,0,.305,0,.458,0a.469.469,0,0,1,.009.939q-.47.008-.94,0a.469.469,0,0,1,0-.939C722.494,308.06,722.651,308.063,722.807,308.063Z" transform="translate(-157.032 -185.928)" fill="#f37b71" fill-rule="evenodd"/>
    <path id="Path_62" data-name="Path 62" d="M722.813,396.529c.153,0,.305,0,.458,0a.469.469,0,0,1,0,.939q-.47.008-.94,0a.469.469,0,0,1,.009-.938C722.5,396.526,722.656,396.529,722.813,396.529Z" transform="translate(-157.035 -271.618)" fill="#f37b71" fill-rule="evenodd"/>
  </g>
</svg>
