<svg width="17" height="16" viewBox="0 0 17 16" fill="none" xmlns="http://www.w3.org/2000/svg">
<path d="M16.6651 4.10794C16.6651 3.53861 16.6651 2.96929 16.6651 2.39996C16.6708 2.05114 16.5953 1.70576 16.4449 1.39096C16.2495 0.958079 15.9283 0.594116 15.523 0.346525C15.1177 0.0989341 14.6472 -0.0207957 14.1729 0.0029583C10.3256 0.0029583 6.47826 0.0029583 2.63093 0.0029583C2.44893 0.0029583 2.26104 0.0119593 2.07404 0.0289593C1.52716 0.0918275 1.0206 0.347413 0.645086 0.749937C0.257702 1.13863 0.0329377 1.66042 0.0169125 2.20895C-0.00308746 4.88095 -0.00489996 7.32396 0.00910004 9.67596C0.00385988 10.2313 0.196289 10.7705 0.552069 11.197C0.907849 11.6235 1.40367 11.9095 1.95099 12.0039C2.03799 12.0209 2.12293 12.0299 2.21393 12.0389H2.24494V15.451L2.41389 15.3369L2.49494 15.283L2.60407 15.209L3.49592 14.5879C4.64892 13.7879 5.83994 12.956 7.01594 12.145C7.10498 12.0858 7.20909 12.0532 7.31598 12.051C8.64498 12.051 9.99702 12.051 11.304 12.051H14.2039C14.8576 12.0615 15.4894 11.8156 15.9639 11.3659C16.1912 11.1416 16.371 10.8738 16.4925 10.5784C16.614 10.2831 16.6746 9.96627 16.671 9.64694C16.667 7.79794 16.6661 5.91794 16.6651 4.10794ZM4.18903 12.663L3.4549 13.1739L3.44098 13.184V10.8539H3.3321H3.06013H2.80012C2.66812 10.8539 2.56098 10.854 2.46198 10.844C2.25949 10.8392 2.05925 10.7999 1.86994 10.7279C1.66022 10.6409 1.4825 10.4915 1.36066 10.2999C1.23883 10.1083 1.17888 9.88378 1.18903 9.65695C1.18103 7.17695 1.18103 4.72896 1.18903 2.38196C1.18718 2.21851 1.21939 2.05645 1.28351 1.9061C1.34764 1.75574 1.44235 1.62035 1.56159 1.50854C1.68083 1.39673 1.82197 1.31095 1.97614 1.25662C2.13031 1.20229 2.2941 1.18061 2.4571 1.19296H12.9759H14.251C14.5236 1.17985 14.792 1.26376 15.0086 1.42981C15.2252 1.59586 15.3758 1.83329 15.4339 2.09994C15.4629 2.23121 15.4754 2.36558 15.471 2.49994C15.471 3.32327 15.471 4.1466 15.471 4.96994C15.471 6.46994 15.4711 8.02595 15.4771 9.55295C15.5009 9.84633 15.416 10.1382 15.2386 10.3731C15.0612 10.608 14.8036 10.7695 14.515 10.827C14.3979 10.8456 14.2794 10.8536 14.161 10.851H12.0069C10.3679 10.851 8.6729 10.851 7.0069 10.851C6.86869 10.8535 6.73414 10.8955 6.61896 10.972C5.80496 11.537 4.98303 12.109 4.18903 12.662V12.663Z" fill="#7B7B7B"/>
<path d="M12.2346 4.00275C12.2346 4.15507 12.174 4.30116 12.0664 4.40897C11.9588 4.51677 11.813 4.57746 11.6606 4.57773H4.96948C4.81698 4.57773 4.67082 4.51717 4.56299 4.40933C4.45515 4.3015 4.39453 4.15525 4.39453 4.00275C4.39453 3.85025 4.45515 3.70399 4.56299 3.59616C4.67082 3.48833 4.81698 3.42773 4.96948 3.42773H11.6606C11.813 3.428 11.9588 3.48869 12.0664 3.5965C12.174 3.7043 12.2346 3.85042 12.2346 4.00275Z" fill="#7B7B7B"/>
<path d="M12.2346 6.04279C12.2346 6.19511 12.174 6.34123 12.0664 6.44904C11.9588 6.55684 11.813 6.61753 11.6606 6.6178H4.96948C4.81698 6.6178 4.67082 6.55724 4.56299 6.4494C4.45515 6.34157 4.39453 6.19529 4.39453 6.04279C4.39453 5.89029 4.45515 5.74406 4.56299 5.63623C4.67082 5.5284 4.81698 5.46777 4.96948 5.46777H11.6606C11.813 5.46804 11.9588 5.52873 12.0664 5.63654C12.174 5.74434 12.2346 5.89046 12.2346 6.04279Z" fill="#7B7B7B"/>
<path d="M12.2346 8.11407C12.2346 8.2664 12.174 8.41252 12.0664 8.52032C11.9588 8.62813 11.813 8.68882 11.6606 8.68909H4.96948C4.81698 8.68909 4.67082 8.62852 4.56299 8.52069C4.45515 8.41286 4.39453 8.26657 4.39453 8.11407C4.39453 7.96158 4.45515 7.81535 4.56299 7.70752C4.67082 7.59969 4.81698 7.53906 4.96948 7.53906H11.6606C11.813 7.53933 11.9588 7.60002 12.0664 7.70782C12.174 7.81563 12.2346 7.96175 12.2346 8.11407Z" fill="#7B7B7B"/>
</svg>
