<svg width="27" height="27" viewBox="0 0 27 27" fill="none" xmlns="http://www.w3.org/2000/svg">
<g clip-path="url(#clip0_1917_2199)">
<path fill-rule="evenodd" clip-rule="evenodd" d="M19.9801 18.4434V20.1602C20.7855 20.3882 21.4813 20.8999 21.9393 21.6006C22.3972 22.3013 22.5867 23.1441 22.4722 23.9734C22.4452 24.5624 22.4722 25.1532 22.4652 25.7432C22.4542 26.3762 22.1653 26.6552 21.5343 26.6682C21.3263 26.6682 21.1173 26.6682 20.9093 26.6682C20.716 26.6875 20.5226 26.6315 20.3695 26.512C20.2164 26.3924 20.1153 26.2186 20.0872 26.0264C20.0444 25.8367 20.0772 25.6376 20.1785 25.4717C20.2799 25.3057 20.4419 25.1857 20.6302 25.1372C20.7092 25.1062 20.794 25.0912 20.897 25.0632C20.897 24.4632 20.9262 23.8773 20.8912 23.2913C20.8727 22.8433 20.6779 22.4208 20.3494 22.1157C20.0209 21.8106 19.5851 21.6477 19.137 21.6624C18.9153 21.6627 18.6959 21.7068 18.4913 21.7922C18.2867 21.8777 18.1011 22.0028 17.9449 22.1602C17.7887 22.3176 17.665 22.5042 17.5811 22.7095C17.4973 22.9147 17.4548 23.1345 17.4561 23.3562C17.4381 23.9102 17.4561 24.4643 17.4561 25.0393C17.5901 25.0943 17.7652 25.1092 17.8272 25.2012C18.0309 25.4313 18.1729 25.7094 18.2401 26.0093C18.2571 26.3863 17.9463 26.6262 17.5553 26.6602C17.2439 26.6882 16.9306 26.6882 16.6192 26.6602C16.5225 26.6609 16.4267 26.6421 16.3375 26.6047C16.2483 26.5674 16.1675 26.5123 16.1002 26.4429C16.0329 26.3734 15.9804 26.291 15.9459 26.2007C15.9113 26.1103 15.8955 26.0139 15.8992 25.9172C15.8563 24.8946 15.8691 23.8706 15.9381 22.8494C16.0027 22.2749 16.2315 21.731 16.5968 21.283C16.962 20.8349 17.4485 20.5014 17.9981 20.3223C18.13 20.2936 18.2459 20.2152 18.3216 20.1035C18.3974 19.9918 18.4272 19.8553 18.4051 19.7222C18.3751 19.1882 18.397 18.6502 18.397 18.0662C17.721 17.9122 17.0712 17.7453 16.4122 17.6313C16.2942 17.6113 16.091 17.7864 16.012 17.9214C15.374 18.9534 14.7582 19.9994 14.1302 21.0374C13.6302 21.8584 13.0082 21.8614 12.5152 21.0464C11.8862 20.0084 11.2541 18.9724 10.6461 17.9224C10.6243 17.8628 10.5907 17.8083 10.5472 17.7622C10.5037 17.7161 10.4511 17.6792 10.3929 17.6541C10.3347 17.6289 10.272 17.6159 10.2086 17.6157C10.1452 17.6156 10.0826 17.6284 10.0242 17.6533C9.45725 17.8083 8.87807 17.9193 8.24007 18.0623C8.24007 19.2733 8.22711 20.4822 8.25911 21.6902C8.25911 21.8232 8.50919 21.9782 8.67219 22.0732C9.13577 22.3383 9.50111 22.7464 9.71345 23.2363C9.9258 23.7263 9.97373 24.2718 9.85017 24.7913C9.72341 25.3003 9.43812 25.756 9.03548 26.0923C8.63283 26.4286 8.1337 26.6283 7.61018 26.6624C7.08657 26.692 6.56718 26.5532 6.12825 26.2661C5.68932 25.9791 5.35396 25.559 5.17122 25.0674C4.95505 24.5117 4.9535 23.8954 5.16682 23.3386C5.38015 22.7818 5.79313 22.3242 6.32527 22.0552C6.44201 22.008 6.53985 21.9236 6.60384 21.8152C6.66782 21.7067 6.6944 21.5803 6.67928 21.4553C6.66128 20.5013 6.66914 19.5463 6.66414 18.5923C6.65956 18.5576 6.6494 18.5237 6.63411 18.4922C5.87675 18.4801 5.13585 18.7141 4.52278 19.1589C3.90971 19.6038 3.45767 20.2355 3.23421 20.9592C2.66887 22.6332 2.11049 24.3096 1.55916 25.9883C1.52427 26.178 1.42344 26.3493 1.27449 26.4719C1.12554 26.5945 0.938094 26.6604 0.745193 26.6582C0.618549 26.656 0.494286 26.6227 0.383621 26.561C0.272955 26.4994 0.17921 26.4114 0.110671 26.3049C0.0421327 26.1984 0.00101528 26.0767 -0.0092017 25.9504C-0.0194187 25.8242 0.00155877 25.6975 0.0520776 25.5813C0.652078 23.7543 1.21719 21.9143 1.89119 20.1143C2.16727 19.3495 2.63617 18.669 3.25252 18.1387C3.86886 17.6083 4.61183 17.246 5.40926 17.0872C6.79059 16.7538 8.17748 16.446 9.57014 16.1633C9.90614 16.0933 10.0021 15.9633 10.0311 15.6233C10.1066 15.1842 10.0522 14.7326 9.87459 14.324C9.69694 13.9154 9.40369 13.5675 9.03108 13.3232C8.27119 12.7351 7.66122 11.9754 7.25105 11.1064C6.84089 10.2374 6.6423 9.28374 6.67122 8.32324C6.64922 7.28224 6.66522 6.2412 6.67122 5.2002C6.66291 4.28801 6.97777 3.40234 7.56013 2.7002C8.26132 1.85244 9.14112 1.17013 10.1365 0.70166C11.132 0.233189 12.2185 -0.00976563 13.3187 -0.00976562C14.4188 -0.00976563 15.5054 0.233189 16.5008 0.70166C17.4962 1.17013 18.376 1.85244 19.0772 2.7002C19.5666 3.22784 19.8589 3.90809 19.9051 4.62622C19.9669 6.30399 19.923 7.98403 19.7733 9.65625C19.6437 10.5107 19.3276 11.3262 18.8477 12.0449C18.3678 12.7637 17.7357 13.368 16.9962 13.8152C16.8663 13.8793 16.7595 13.9823 16.6905 14.1096C16.6216 14.237 16.5939 14.3826 16.6112 14.5264C16.6542 15.0264 16.4853 15.6542 16.7323 15.9802C16.9603 16.2802 17.6182 16.2572 18.0902 16.3652C19.1372 16.6052 20.1902 16.8204 21.2332 17.0774C22.0458 17.2458 22.8002 17.6231 23.4224 18.1721C24.0446 18.7212 24.5129 19.423 24.7811 20.2083C25.4161 21.9673 25.9812 23.7523 26.5672 25.5283C26.6153 25.6307 26.641 25.7423 26.6424 25.8555C26.6438 25.9686 26.6208 26.0805 26.5753 26.1841C26.5297 26.2876 26.4624 26.3804 26.378 26.4558C26.2936 26.5312 26.1943 26.5877 26.0863 26.6213C25.9815 26.6504 25.8717 26.6576 25.764 26.6428C25.6563 26.6281 25.5527 26.5916 25.4595 26.5354C25.3664 26.4792 25.2858 26.4046 25.2225 26.3162C25.1591 26.2278 25.1144 26.1275 25.0911 26.0212C24.5411 24.3972 23.9761 22.7772 23.4681 21.1392C23.2528 20.3751 22.7976 19.7006 22.1695 19.2151C21.5414 18.7296 20.7737 18.4591 19.9801 18.4434ZM13.3153 13.3914C14.6204 13.3889 15.8742 12.884 16.817 11.9814C17.7597 11.0789 18.3189 9.84793 18.3783 8.54419C18.376 8.45912 18.3566 8.37556 18.3214 8.2981C18.2862 8.22063 18.2358 8.1509 18.1732 8.09326C17.7112 7.71126 17.2322 7.34528 16.7362 7.00928C16.6541 6.95243 16.5614 6.91237 16.4637 6.8916C16.366 6.87083 16.2652 6.86967 16.1671 6.88818C14.3202 7.53995 12.3059 7.53995 10.4591 6.88818C10.3608 6.87046 10.2599 6.87266 10.1624 6.89429C10.0649 6.91592 9.97278 6.95654 9.89119 7.01416C9.39119 7.35016 8.9152 7.71417 8.4532 8.09717C8.39148 8.15542 8.34203 8.22561 8.30769 8.30322C8.27335 8.38084 8.25485 8.46446 8.25325 8.54932C8.31434 9.85184 8.87396 11.0808 9.81624 11.9822C10.7585 12.8835 12.0113 13.3882 13.3153 13.3914ZM8.31526 6.46436C8.68526 6.05336 8.96714 5.74933 9.23714 5.43433C9.3845 5.23879 9.60023 5.10599 9.84114 5.06226C10.082 5.01852 10.3305 5.06698 10.5372 5.19824C11.4039 5.60515 12.349 5.81783 13.3065 5.82129C14.2639 5.82474 15.2105 5.6189 16.0802 5.21826C16.7662 4.91826 16.9022 4.9453 17.4522 5.4873C17.7372 5.7683 18.0212 6.05121 18.3582 6.38721C18.5012 4.88721 18.3762 4.31221 17.7972 3.61621C16.7594 2.42759 15.2931 1.69815 13.7191 1.5874C12.145 1.47666 10.5911 1.9938 9.39705 3.02539C8.90997 3.43782 8.54935 3.97925 8.35652 4.58765C8.16369 5.19605 8.14663 5.84666 8.3072 6.46436H8.31526ZM13.3153 19.3442C13.7155 18.6072 14.1534 17.8912 14.6273 17.1992C15.0303 16.4937 15.1767 15.6707 15.0421 14.8694H11.6331C11.5406 15.4097 11.553 15.9626 11.6693 16.4983C12.1579 17.4788 12.7048 18.4291 13.3072 19.3442H13.3153ZM8.34016 24.2253C8.34434 24.1091 8.32495 23.9931 8.28328 23.8845C8.2416 23.776 8.17859 23.6771 8.09773 23.5935C8.01687 23.5099 7.91995 23.4434 7.81282 23.3982C7.70569 23.353 7.59048 23.33 7.4742 23.3303C7.23975 23.3289 7.01407 23.4191 6.84505 23.5815C6.67603 23.744 6.57698 23.9659 6.56917 24.2002C6.57261 24.4346 6.66595 24.6587 6.82991 24.8262C6.99387 24.9937 7.21603 25.0919 7.45027 25.1003C7.56556 25.1015 7.67977 25.08 7.7867 25.0369C7.89363 24.9937 7.9911 24.9299 8.07332 24.8491C8.15554 24.7683 8.22101 24.6719 8.26594 24.5657C8.31088 24.4595 8.33425 24.3455 8.33504 24.2302L8.34016 24.2253Z" fill="white"/>
</g>
<defs>
<clipPath id="clip0_1917_2199">
<rect width="26.625" height="26.679" fill="white"/>
</clipPath>
</defs>
</svg>
