<svg width="445" height="353" viewBox="0 0 445 353" fill="none" xmlns="http://www.w3.org/2000/svg">
<path d="M48.0626 18.8794C50.1494 14.5088 53.2472 10.6587 57.1396 7.59839C61.032 4.53808 65.6249 2.34137 70.5972 1.16185C75.5695 -0.0176642 80.8013 -0.151498 85.9266 0.769663C91.052 1.69082 95.9473 3.64478 100.27 6.49489C105.835 9.26035 165.451 49.5842 204.298 25.7794C213.348 20.4797 223.695 17.3206 234.492 16.5605C245.29 15.8003 256.231 17.4608 266.422 21.406C276.612 25.3512 285.762 31.4691 293.123 39.2592C300.484 47.0494 305.847 56.2905 308.774 66.2268L321.911 102.438C327.876 120.008 339.365 135.658 354.827 147.278L400.219 181.39C403.294 183.459 406.253 185.683 409.079 188.05L409.189 188.131L409.187 188.138C428.698 204.532 441.138 227.031 443.982 251.069C446.827 275.108 439.864 298.886 424.505 317.579C409.146 336.271 386.542 348.479 361.28 351.725C336.017 354.971 309.988 349.012 288.473 335.057L239.612 308.389C226.418 301.19 211.723 296.96 196.731 296.044C181.739 295.129 166.875 297.555 153.357 303.123C146.002 306.152 136.797 311.071 135.407 312.17C135.396 312.179 135.358 312.164 135.336 312.162C120.04 321.76 101.603 326.246 82.8531 324.932C64.1036 323.618 46.0773 316.577 31.5395 304.889C17.0017 293.2 6.75539 277.511 2.37229 260.226C-2.01081 242.941 -0.288594 225.017 7.27475 209.201C7.53588 208.656 48.9894 130.168 48.9894 130.168L49.1675 129.825C58.8259 110.969 60.7793 89.1941 54.67 68.4866L46.7257 42.4251C44.0792 34.5682 44.5549 26.191 48.0626 18.8794Z" fill="url(#paint0_linear_1926_2254)"/>
<defs>
<linearGradient id="paint0_linear_1926_2254" x1="15.4752" y1="126.684" x2="449.997" y2="256.437" gradientUnits="userSpaceOnUse">
<stop stop-color="#FF82D1"/>
<stop offset="0.504" stop-color="#D242C3"/>
<stop offset="1" stop-color="#A400B6"/>
</linearGradient>
</defs>
</svg>
