<svg width="29" height="27" viewBox="0 0 29 27" fill="none" xmlns="http://www.w3.org/2000/svg">
<path d="M13.3425 21.1169C11.7698 20.9723 10.2714 20.3804 9.02454 19.411L8.36353 19.973C7.89686 20.373 7.42757 20.773 6.95557 21.173C6.93254 21.1855 6.91539 21.2065 6.90772 21.2316C6.90005 21.2566 6.90247 21.2837 6.91456 21.307C6.99995 21.5339 7.03272 21.7772 7.01026 22.0187C6.9878 22.2601 6.91071 22.4933 6.78492 22.7005C6.65912 22.9078 6.48785 23.0838 6.28406 23.2152C6.08028 23.3466 5.84925 23.43 5.60853 23.459C5.26152 23.5189 4.90446 23.4696 4.58668 23.3179C4.26889 23.1661 4.00615 22.9195 3.8346 22.6119C3.72894 22.413 3.66685 22.1939 3.65259 21.9691C3.63834 21.7443 3.67215 21.5191 3.75184 21.3085C3.83152 21.0978 3.9553 20.9065 4.11475 20.7474C4.2742 20.5884 4.46567 20.4652 4.67652 20.386C5.07405 20.2249 5.51709 20.2163 5.92054 20.3619C5.94335 20.3745 5.96999 20.3786 5.99549 20.3733C6.02099 20.368 6.04369 20.3536 6.05958 20.333C6.65958 19.6883 7.25962 19.0454 7.85962 18.404C7.87462 18.389 7.88652 18.3719 7.90552 18.3509C7.81852 18.2409 7.73159 18.134 7.64759 18.025C6.81518 16.956 6.2925 15.6789 6.1366 14.333C6.1276 14.253 6.10251 14.227 6.02051 14.223C5.14518 14.1783 4.27018 14.1306 3.39551 14.0799C3.35438 14.0709 3.31148 14.0773 3.27466 14.0978C3.23784 14.1182 3.20968 14.1514 3.19556 14.191C3.03161 14.5 2.77635 14.7507 2.4646 14.9093C2.15286 15.0678 1.79986 15.1265 1.45362 15.077C1.11119 15.0374 0.789622 14.8919 0.533819 14.6609C0.278016 14.4298 0.100728 14.1246 0.0266166 13.7879C-0.0122367 13.5762 -0.00853521 13.3589 0.0376029 13.1487C0.083741 12.9384 0.17136 12.7396 0.295293 12.5636C0.419227 12.3876 0.577004 12.238 0.759405 12.1238C0.941805 12.0095 1.14513 11.9327 1.35755 11.8979C1.72587 11.8235 2.1085 11.8733 2.44556 12.0394C2.78263 12.2055 3.05517 12.4786 3.22059 12.816C3.22943 12.8387 3.24573 12.8575 3.26685 12.8695C3.28797 12.8815 3.31258 12.8859 3.33655 12.8819C4.23655 12.8319 5.13663 12.783 6.03663 12.735C6.08963 12.735 6.12057 12.722 6.12757 12.66C6.20283 12.0044 6.3653 11.3617 6.6106 10.749C6.61155 10.7387 6.61155 10.7283 6.6106 10.718L5.88453 10.3459C5.46553 10.1319 5.04555 9.91999 4.62855 9.70299C4.6028 9.68592 4.57202 9.67823 4.54127 9.68114C4.51051 9.68405 4.48169 9.69738 4.4596 9.71898C4.32094 9.82448 4.15975 9.89654 3.98865 9.92943C3.81755 9.96232 3.64116 9.95513 3.47327 9.90856C3.30538 9.86198 3.15046 9.77721 3.02076 9.66087C2.89105 9.54454 2.79008 9.39988 2.72559 9.23802C2.67119 9.07794 2.65559 8.90713 2.68018 8.73985C2.70478 8.57258 2.76889 8.41363 2.86707 8.27599C2.96525 8.13834 3.09473 8.02595 3.24488 7.94823C3.39503 7.87051 3.56152 7.82965 3.7306 7.82897C3.8761 7.82006 4.02192 7.84039 4.15943 7.88878C4.29693 7.93717 4.42328 8.01264 4.53113 8.1107C4.63899 8.20877 4.72614 8.32753 4.78736 8.45982C4.84858 8.59212 4.88264 8.73528 4.88758 8.88097C4.88943 8.89859 4.89537 8.9156 4.90491 8.93053C4.91446 8.94546 4.92741 8.95795 4.94263 8.96703C5.64063 9.23369 6.34061 9.50029 7.04261 9.76695C7.05261 9.76695 7.06358 9.76695 7.05958 9.76695L7.88856 8.59898C7.86956 8.57798 7.83757 8.54099 7.80457 8.50499C7.22524 7.88566 6.6463 7.26629 6.06763 6.64696C6.04807 6.62076 6.01979 6.6024 5.98792 6.59508C5.95605 6.58775 5.9226 6.59189 5.89356 6.60692C5.50366 6.7458 5.07668 6.73866 4.69166 6.58678C4.30663 6.4349 3.98966 6.14866 3.79957 5.78099C3.70901 5.5936 3.65629 5.39015 3.64454 5.18236C3.63278 4.97457 3.66224 4.76646 3.73108 4.57005C3.79993 4.37365 3.90687 4.19281 4.04578 4.03783C4.1847 3.88285 4.3528 3.75682 4.54053 3.66698C4.94697 3.45984 5.41886 3.42193 5.85315 3.56151C6.28745 3.70109 6.64888 4.00682 6.85853 4.41197C6.95282 4.60278 7.00633 4.81115 7.01563 5.02379C7.02493 5.23642 6.98988 5.44865 6.9126 5.64696C6.8946 5.69596 6.87855 5.73296 6.93055 5.77696C7.61588 6.35696 8.29988 6.93863 8.98255 7.52196C8.99525 7.53126 9.00866 7.53964 9.02259 7.54698C10.2686 6.58046 11.7652 5.99064 13.3356 5.84703C13.3486 5.65503 13.3616 5.46799 13.3726 5.28099C13.4136 4.59099 13.4525 3.90102 13.4985 3.21202C13.5035 3.12802 13.4656 3.10296 13.3986 3.07396C13.1062 2.94857 12.8579 2.73897 12.6853 2.47179C12.5127 2.20461 12.4237 1.89199 12.4296 1.57396C12.4454 1.20939 12.583 0.860643 12.8206 0.583604C13.0581 0.306565 13.3817 0.117304 13.7396 0.0460064C14.1501 -0.0514647 14.582 0.00714068 14.9517 0.210435C15.3213 0.41373 15.6022 0.747166 15.7396 1.14598C15.8546 1.51789 15.8279 1.91908 15.6649 2.27257C15.5019 2.62606 15.214 2.90693 14.8566 3.06102C14.82 3.07342 14.7894 3.09902 14.7709 3.13292C14.7524 3.16682 14.7473 3.20652 14.7566 3.244C14.8076 4.03 14.8516 4.81604 14.8976 5.60204C14.8976 5.68004 14.9086 5.75803 14.9136 5.82103L16.4265 6.10301C16.4325 6.09201 16.4506 6.06199 16.4656 6.03099C16.6306 5.67999 16.7946 5.33104 16.9656 4.97704C16.9783 4.9567 16.9832 4.93247 16.9795 4.9088C16.9758 4.88512 16.9638 4.86355 16.9456 4.84801C16.7946 4.70632 16.6898 4.52247 16.6447 4.32042C16.5995 4.11837 16.6163 3.90739 16.6926 3.71495C16.7618 3.51595 16.887 3.34126 17.0532 3.2119C17.2195 3.08254 17.4196 3.00402 17.6295 2.98595C17.9108 2.94208 18.1985 3.00398 18.4369 3.15965C18.6753 3.31532 18.8476 3.55375 18.9205 3.82897C18.9559 3.98404 18.9576 4.1449 18.9253 4.30064C18.893 4.45639 18.8276 4.60344 18.7335 4.73168C18.6394 4.85991 18.5188 4.9664 18.3799 5.04393C18.241 5.12146 18.0871 5.16822 17.9286 5.18102C17.8891 5.17946 17.8504 5.19232 17.8197 5.21715C17.789 5.24198 17.7684 5.27711 17.7616 5.31603C17.6416 5.69603 17.5116 6.07292 17.3826 6.46092C18.045 6.7416 18.6682 7.10701 19.2366 7.54796L20.0145 6.88597C20.4432 6.52131 20.8719 6.15664 21.3005 5.79198C21.3485 5.75098 21.3716 5.72001 21.3466 5.65001C21.2613 5.42284 21.2289 5.17917 21.2517 4.93761C21.2745 4.69604 21.3518 4.46283 21.478 4.2556C21.6042 4.04837 21.7759 3.87266 21.9801 3.74156C22.1843 3.61047 22.4157 3.52752 22.6566 3.49901C23.0133 3.43881 23.3798 3.49349 23.7034 3.65526C24.0269 3.81703 24.2907 4.07756 24.4565 4.39903C24.5528 4.59763 24.6066 4.8141 24.6144 5.03465C24.6222 5.25521 24.5838 5.47489 24.5018 5.6798C24.4199 5.8847 24.2961 6.07029 24.1383 6.2246C23.9805 6.3789 23.7923 6.49864 23.5856 6.57604C23.191 6.73442 22.7522 6.74321 22.3516 6.60094C22.2996 6.58294 22.2606 6.56893 22.2106 6.62193C21.6046 7.2746 20.9966 7.92529 20.3866 8.57396C20.3778 8.58474 20.3698 8.59616 20.3626 8.60802C20.5086 8.80002 20.6625 8.98494 20.7965 9.17894C21.5267 10.1977 21.9852 11.3858 22.1285 12.631C22.1375 12.705 22.1576 12.7309 22.2366 12.7369C23.1119 12.7816 23.9869 12.8296 24.8616 12.881C24.903 12.8883 24.9457 12.8809 24.9822 12.8601C25.0187 12.8393 25.0468 12.8063 25.0615 12.767C25.226 12.4582 25.4818 12.2078 25.794 12.0498C26.1061 11.8918 26.4593 11.8339 26.8055 11.884C27.1481 11.9241 27.4695 12.0701 27.725 12.3017C27.9805 12.5334 28.1573 12.839 28.2306 13.176C28.2691 13.3879 28.265 13.6052 28.2185 13.8154C28.172 14.0257 28.0839 14.2246 27.9596 14.4004C27.8353 14.5762 27.6772 14.7254 27.4945 14.8393C27.3118 14.9533 27.1081 15.0297 26.8955 15.064C26.5289 15.1375 26.1483 15.0881 25.8126 14.9234C25.4769 14.7588 25.2048 14.4879 25.0386 14.1529C25.0285 14.1271 25.0096 14.1058 24.9852 14.0926C24.9609 14.0795 24.9326 14.0752 24.9055 14.0809C24.1869 14.1216 23.4686 14.161 22.7506 14.199C22.5726 14.209 22.3945 14.2159 22.2175 14.2309C22.1995 14.2343 22.1825 14.242 22.1681 14.2533C22.1536 14.2646 22.1421 14.2793 22.1345 14.296C22.0465 14.746 21.9646 15.1959 21.8776 15.6639L22.2705 15.838C22.8055 16.073 23.3406 16.3059 23.8706 16.5439C23.8972 16.5596 23.9284 16.5658 23.959 16.5613C23.9896 16.5567 24.0177 16.5418 24.0386 16.519C24.1759 16.4006 24.3377 16.3139 24.5125 16.2654C24.6872 16.2168 24.8706 16.2076 25.0493 16.2383C25.2281 16.269 25.3978 16.3388 25.5464 16.4429C25.695 16.5469 25.8186 16.6825 25.9086 16.84C25.9901 16.9942 26.035 17.1652 26.0397 17.3396C26.0444 17.514 26.0088 17.6872 25.9357 17.8456C25.8625 18.004 25.7537 18.1433 25.6179 18.2528C25.4821 18.3623 25.3229 18.4391 25.1526 18.477C24.9847 18.5233 24.8087 18.5323 24.637 18.5038C24.4652 18.4752 24.3017 18.4096 24.1578 18.3115C24.014 18.2134 23.8933 18.0851 23.804 17.9357C23.7146 17.7862 23.6589 17.6192 23.6406 17.446C23.6359 17.4259 23.6266 17.4071 23.6134 17.3911C23.6002 17.3751 23.5835 17.3624 23.5646 17.354C22.8826 17.136 22.1996 16.922 21.5166 16.707C21.4696 16.692 21.4355 16.679 21.4045 16.741C21.1211 17.3207 20.7657 17.8624 20.3466 18.353L20.7716 18.807C21.2436 19.3117 21.7152 19.8167 22.1865 20.322C22.2049 20.347 22.2317 20.3647 22.262 20.3718C22.2922 20.379 22.3239 20.3751 22.3516 20.3609C22.7413 20.22 23.169 20.2253 23.5552 20.3757C23.9414 20.5261 24.2598 20.8115 24.4515 21.1789C24.5432 21.3659 24.597 21.5691 24.6099 21.777C24.6227 21.9848 24.5943 22.1932 24.5264 22.39C24.4584 22.5868 24.3523 22.7683 24.214 22.9239C24.0757 23.0796 23.9081 23.2064 23.7206 23.297C23.3197 23.5026 22.8544 23.5437 22.4236 23.4117C21.9928 23.2797 21.6305 22.9849 21.4136 22.59C21.3112 22.3952 21.252 22.1807 21.2401 21.961C21.2282 21.7413 21.2638 21.5217 21.3446 21.317C21.3582 21.2948 21.3625 21.2681 21.3567 21.2427C21.3509 21.2173 21.3355 21.1952 21.3136 21.181C20.6343 20.605 19.9559 20.0279 19.2786 19.4499C19.2676 19.4409 19.2556 19.4339 19.2346 19.4189C18.6167 19.9001 17.9331 20.2905 17.2046 20.578C16.4723 20.8645 15.7034 21.0472 14.9205 21.121C14.9085 21.301 14.8956 21.481 14.8856 21.66C14.8436 22.36 14.8035 23.06 14.7585 23.76C14.7535 23.838 14.7865 23.86 14.8475 23.892C15.1499 24.0168 15.4059 24.2328 15.5797 24.5099C15.7536 24.787 15.8368 25.1114 15.8176 25.438C15.8042 25.7325 15.7072 26.0171 15.5378 26.2585C15.3685 26.4999 15.1339 26.6881 14.8616 26.801C14.5111 26.9635 14.1164 27.0043 13.74 26.9172C13.3636 26.8301 13.027 26.6199 12.7836 26.3199C12.6337 26.1304 12.5296 25.9089 12.4794 25.6726C12.4291 25.4363 12.4341 25.1916 12.4939 24.9575C12.5537 24.7234 12.6667 24.5064 12.8241 24.3231C12.9815 24.1399 13.1792 23.9954 13.4016 23.901C13.4373 23.8898 13.4674 23.8656 13.486 23.8331C13.5045 23.8007 13.5101 23.7623 13.5016 23.7259C13.4506 22.9399 13.4016 22.154 13.3596 21.369C13.3556 21.279 13.3485 21.1979 13.3425 21.1169ZM12.0825 16.102C11.8907 16.1031 11.7009 16.1419 11.5241 16.2163C11.3472 16.2907 11.1868 16.3991 11.0519 16.5355C10.917 16.6719 10.8101 16.8336 10.7377 17.0112C10.6652 17.1889 10.6285 17.3792 10.6295 17.571C10.6294 17.9529 10.7784 18.3197 11.0448 18.5934C11.3112 18.867 11.6738 19.0258 12.0555 19.036C12.2464 19.0368 12.4357 19 12.6123 18.9276C12.789 18.8552 12.9496 18.7487 13.0851 18.6142C13.2206 18.4798 13.3283 18.32 13.402 18.1439C13.4757 17.9678 13.5139 17.7789 13.5145 17.588C13.5194 17.3958 13.4862 17.2044 13.4166 17.0251C13.3471 16.8459 13.2426 16.6823 13.1093 16.5437C12.976 16.4051 12.8166 16.2943 12.6401 16.2178C12.4637 16.1413 12.2738 16.1006 12.0815 16.098L12.0825 16.102ZM11.3005 8.90196C11.2984 9.22664 11.4248 9.53895 11.652 9.77086C11.8792 10.0028 12.1889 10.1355 12.5136 10.14C12.8362 10.134 13.1437 10.0016 13.3699 9.77147C13.5961 9.54132 13.723 9.23164 13.7235 8.90892C13.7249 8.58678 13.6002 8.27698 13.3759 8.04576C13.1516 7.81454 12.8456 7.68035 12.5236 7.67198C12.1996 7.67303 11.8892 7.80211 11.6599 8.03099C11.4307 8.25988 11.3011 8.57008 11.2996 8.89403L11.3005 8.90196ZM20.3616 10.938C20.364 10.6408 20.2491 10.3546 20.0419 10.1416C19.8346 9.92854 19.5517 9.80582 19.2545 9.80003C18.9572 9.80214 18.6727 9.92143 18.4628 10.1321C18.2529 10.3427 18.1346 10.6277 18.1336 10.925C18.1298 11.2241 18.2447 11.5124 18.4531 11.727C18.6615 11.9416 18.9465 12.0649 19.2456 12.0699C19.5442 12.0657 19.829 11.9436 20.0378 11.7302C20.2467 11.5168 20.3627 11.2296 20.3606 10.931L20.3616 10.938ZM16.2096 13.082C16.4908 13.0791 16.7595 12.9652 16.9573 12.7652C17.155 12.5652 17.2659 12.2953 17.2656 12.014C17.268 11.731 17.1581 11.4585 16.96 11.2565C16.7618 11.0544 16.4916 10.9392 16.2086 10.936C15.9275 10.9405 15.6594 11.0558 15.4629 11.2569C15.2664 11.4581 15.1574 11.7288 15.1596 12.01C15.1598 12.2895 15.2699 12.5578 15.4662 12.7568C15.6624 12.9559 15.9291 13.0698 16.2086 13.074L16.2096 13.082ZM17.2626 17.9819C17.4915 17.9803 17.7104 17.8884 17.8717 17.7259C18.033 17.5635 18.1235 17.3439 18.1235 17.115C18.1244 16.8877 18.0363 16.6692 17.8779 16.5062C17.7196 16.3432 17.5038 16.2488 17.2766 16.243C17.1622 16.2429 17.0488 16.2655 16.9432 16.3094C16.8376 16.3534 16.7419 16.4179 16.6614 16.4993C16.5809 16.5806 16.5174 16.677 16.4745 16.7831C16.4316 16.8891 16.4103 17.0025 16.4116 17.1169C16.4142 17.3419 16.5044 17.5571 16.6631 17.7165C16.8218 17.876 17.0366 17.9673 17.2616 17.9709L17.2626 17.9819ZM11.5295 12.458C11.3641 12.4593 11.2059 12.5258 11.0891 12.6429C10.9723 12.7601 10.9063 12.9185 10.9055 13.084C10.9044 13.2495 10.9686 13.4088 11.0841 13.5275C11.1996 13.6461 11.3571 13.7146 11.5226 13.718C11.6881 13.7169 11.8465 13.6503 11.963 13.5328C12.0796 13.4153 12.1448 13.2564 12.1445 13.0909C12.1468 13.0081 12.1326 12.9258 12.1028 12.8485C12.073 12.7712 12.0281 12.7007 11.9708 12.6409C11.9135 12.581 11.845 12.5332 11.769 12.5001C11.6931 12.467 11.6114 12.4493 11.5286 12.448L11.5295 12.458ZM9.44751 15.5229C9.44768 15.3945 9.39849 15.271 9.31006 15.178C9.22164 15.0849 9.10077 15.0294 8.97254 15.0229C8.84473 15.0239 8.72241 15.0748 8.63147 15.1647C8.54054 15.2545 8.4882 15.3762 8.4856 15.504C8.48414 15.5683 8.49539 15.6323 8.51868 15.6922C8.54198 15.7522 8.57685 15.8069 8.62134 15.8534C8.66584 15.8998 8.71906 15.937 8.77796 15.9629C8.83686 15.9887 8.9003 16.0027 8.9646 16.004C9.09265 16.0019 9.21473 15.9498 9.30481 15.8588C9.3949 15.7677 9.44577 15.645 9.44654 15.517L9.44751 15.5229Z" fill="#D1D1D1"/>
</svg>
