<svg width="23" height="17" viewBox="0 0 23 17" fill="none" xmlns="http://www.w3.org/2000/svg">
<path fill-rule="evenodd" clip-rule="evenodd" d="M22.333 1.69397C22.333 2.14325 22.1546 2.57416 21.8369 2.89185C21.5192 3.20953 21.0882 3.38794 20.6389 3.38794H1.69312C1.24401 3.38767 0.81332 3.20914 0.49585 2.89148C0.178379 2.57382 -7.82507e-08 2.14307 0 1.69397C-7.82511e-08 1.24487 0.178379 0.814118 0.49585 0.49646C0.81332 0.178802 1.24401 0.000265114 1.69312 0H20.6389C21.0882 0 21.5192 0.178529 21.8369 0.496216C22.1546 0.813902 22.333 1.24469 22.333 1.69397Z" fill="white"/>
<path fill-rule="evenodd" clip-rule="evenodd" d="M16.801 8.12366C16.801 8.57293 16.6226 9.00385 16.3049 9.32153C15.9872 9.63922 15.5562 9.81763 15.1069 9.81763H1.69287C1.24377 9.81736 0.81332 9.63882 0.49585 9.32117C0.178379 9.00351 -7.82507e-08 8.57276 0 8.12366C-7.82507e-08 7.67455 0.178379 7.24381 0.49585 6.92615C0.81332 6.60849 1.24377 6.42995 1.69287 6.42969H15.1069C15.5562 6.42969 15.9872 6.60822 16.3049 6.9259C16.6226 7.24359 16.801 7.67438 16.801 8.12366Z" fill="white"/>
<path fill-rule="evenodd" clip-rule="evenodd" d="M9.88696 14.693C9.88696 15.1423 9.70856 15.5732 9.39087 15.8909C9.07318 16.2086 8.64239 16.387 8.19312 16.387H1.69312C1.24401 16.3867 0.81332 16.2082 0.49585 15.8905C0.178379 15.5728 -7.82507e-08 15.1421 0 14.693C-7.82507e-08 14.2439 0.178379 13.8131 0.49585 13.4955C0.81332 13.1778 1.24401 12.9993 1.69312 12.999H8.19312C8.64239 12.999 9.07318 13.1776 9.39087 13.4952C9.70856 13.8129 9.88696 14.2437 9.88696 14.693Z" fill="white"/>
</svg>
