<svg width="16" height="12" viewBox="0 0 16 12" fill="none" xmlns="http://www.w3.org/2000/svg">
<g clip-path="url(#clip0_1917_2193)">
<path d="M14.7063 0.500213H1.1582C1.00049 0.474736 0.839025 0.487091 0.687012 0.536224C0.534998 0.585357 0.396778 0.669872 0.283813 0.782837C0.170848 0.895801 0.0863644 1.03399 0.0372312 1.186C-0.0119019 1.33802 -0.0242572 1.49951 0.0012205 1.65723C0.0012205 4.45723 0.0012205 7.25722 0.0012205 10.0572C-0.0242999 10.215 -0.0119535 10.3766 0.0372312 10.5287C0.086416 10.6809 0.171094 10.8191 0.284179 10.9321C0.397265 11.0451 0.535598 11.1296 0.687744 11.1786C0.83989 11.2277 1.00152 11.2399 1.1593 11.2142H14.7383C14.8961 11.2399 15.0577 11.2277 15.2098 11.1786C15.362 11.1296 15.5003 11.0451 15.6134 10.9321C15.7265 10.8191 15.811 10.6809 15.8602 10.5287C15.9094 10.3766 15.9218 10.215 15.8962 10.0572C15.8962 7.26855 15.8962 4.48023 15.8962 1.69223C15.8942 0.85623 15.5393 0.501213 14.7063 0.500213ZM12.0492 5.92722C12.0402 5.91522 12.0282 5.89822 12.0162 5.88022C11.9693 5.79109 11.8909 5.72265 11.7963 5.68823C11.6901 5.65534 11.5802 5.63617 11.4692 5.63123C11.3852 5.62744 11.3026 5.65368 11.2362 5.70523C11.162 5.78923 11.1144 5.89336 11.0995 6.00446C11.0845 6.11555 11.1029 6.22858 11.1522 6.32922C11.2822 6.52761 11.4263 6.71643 11.5833 6.89423C11.6373 6.95823 11.6913 7.02224 11.7433 7.08624L12.9113 8.52924L14.2793 10.2192H1.62024L3.55823 7.81921L4.62427 6.50122C4.63427 6.48922 4.64523 6.47722 4.65723 6.46622C4.72933 6.40551 4.77578 6.31978 4.78723 6.22623V6.21524C4.79623 6.02824 4.80827 5.79521 4.65027 5.69421C4.56253 5.64465 4.46304 5.61978 4.3623 5.62222C4.24781 5.61916 4.13547 5.65435 4.04321 5.72223C3.90181 5.84875 3.77537 5.99102 3.66626 6.14624C3.62526 6.19924 3.58724 6.24622 3.54724 6.29922L1.38025 8.97424L0.997192 9.44824V2.04822L4.72229 4.84222L6.83923 6.43024C7.14932 6.69504 7.53894 6.84881 7.94629 6.86722C8.36089 6.8476 8.75709 6.69031 9.07227 6.42023C11.0183 4.95956 12.9643 3.49956 14.9103 2.04022V9.46722L13.1202 7.25623L12.0492 5.92722ZM8.42419 5.69022C8.28879 5.80755 8.11905 5.87775 7.94031 5.89023C7.78298 5.8823 7.63251 5.82292 7.51221 5.72122C5.81221 4.44922 4.08623 3.15324 2.41223 1.90024L1.86121 1.48624H14.0253C12.1599 2.8889 10.2929 4.29022 8.42419 5.69022Z" fill="#D2D2D2"/>
</g>
<defs>
<clipPath id="clip0_1917_2193">
<rect width="15.895" height="10.71" fill="white" transform="translate(0 0.5)"/>
</clipPath>
</defs>
</svg>
