<svg width="30" height="26" viewBox="0 0 30 26" fill="none" xmlns="http://www.w3.org/2000/svg">
<path fill-rule="evenodd" clip-rule="evenodd" d="M5.12279 22.4853H1.42284C1.21418 22.5199 1.00055 22.5128 0.794665 22.4643C0.503665 22.3293 0.12182 22.1514 0.0278195 21.8994C-0.00950198 21.7401 -0.00928554 21.5742 0.028552 21.415C0.0663895 21.2559 0.140827 21.1079 0.245837 20.9824C3.32184 17.9584 4.59268 14.1354 4.98168 9.99242C5.20168 7.64442 5.09372 5.26538 5.12572 2.90038C5.13872 1.97338 5.39667 1.70043 6.32567 1.70043C7.64867 1.70043 8.97073 1.70043 10.3127 1.70043C10.4707 1.00043 10.1458 -0.0177646 11.2668 0.000235407C12.3288 0.0202354 12.0427 0.982415 12.1487 1.65942H16.4077C16.5077 0.986415 16.2078 -0.0107646 17.3188 0.000235407C18.3768 0.0102354 18.1268 0.956241 18.1938 1.65624H22.5117C22.6567 0.999241 22.3117 -0.0796611 23.5217 0.00633892C24.4967 0.0753389 24.2468 0.961368 24.3218 1.66137C24.5218 1.67337 24.7219 1.69333 24.9219 1.69433C26.0949 1.69433 27.2689 1.68843 28.4429 1.70043C29.1869 1.70843 29.4868 2.01737 29.4868 2.76537C29.4868 10.1347 29.4868 17.5036 29.4868 24.8723C29.4868 25.6723 29.1727 25.9453 28.2737 25.9453C22.0977 25.9453 15.9218 25.9453 9.74584 25.9453C8.59184 25.9453 7.4367 25.9453 6.2827 25.9453C5.3967 25.9453 5.12577 25.6593 5.12377 24.7593C5.12177 24.0333 5.12279 23.3053 5.12279 22.4853ZM27.7527 8.67431H6.85277C6.76424 13.0044 5.35496 17.2043 2.81371 20.7114C3.08071 20.7284 3.24681 20.7483 3.41381 20.7483C9.79914 20.7483 16.1845 20.7516 22.5698 20.7583C22.7496 20.7651 22.9284 20.7286 23.0913 20.6521C23.2542 20.5755 23.3963 20.4611 23.5058 20.3183C26.3788 16.9923 27.4787 13.0253 27.7527 8.67431ZM6.87767 6.84643H27.7178V3.48534H24.3179C24.2469 4.16634 24.4977 5.05231 23.5237 5.12231C22.3117 5.20931 22.6567 4.13243 22.5127 3.47143H18.1968C18.1238 4.16443 18.3806 5.11139 17.3266 5.12939C16.2126 5.14839 16.5137 4.1503 16.4057 3.4873H12.1367C12.0647 4.1873 12.3077 5.10136 11.2807 5.13036C10.1567 5.16236 10.4628 4.15739 10.3288 3.48339H6.88085L6.87767 6.84643ZM27.7278 17.0102C26.8682 18.768 25.7672 20.3972 24.4568 21.8503C24.2668 22.0643 24.0315 22.2332 23.7681 22.345C23.5046 22.4567 23.2197 22.5084 22.9338 22.4963C17.8338 22.4753 12.7336 22.4853 7.63964 22.4853H6.88671V24.1714H27.7287L27.7278 17.0102Z" fill="white"/>
</svg>
