<svg width="22" height="14" viewBox="0 0 22 14" fill="none" xmlns="http://www.w3.org/2000/svg">
<path fill-rule="evenodd" clip-rule="evenodd" d="M14.4701 6.59753C14.4664 7.6436 14.0483 8.64557 13.3074 9.38403C12.5665 10.1225 11.5632 10.5373 10.5171 10.5375C9.47103 10.5336 8.46917 10.1152 7.7309 9.37415C6.99262 8.63306 6.57812 7.6296 6.57813 6.58353C6.58157 5.53747 6.99955 4.53545 7.74054 3.79709C8.48153 3.05873 9.48507 2.64426 10.5311 2.64453C11.5772 2.64797 12.5792 3.06602 13.3176 3.80701C14.0559 4.54799 14.4704 5.55147 14.4701 6.59753ZM10.5331 3.95953C9.83697 3.95924 9.16897 4.234 8.6745 4.72397C8.18003 5.21394 7.89919 5.87944 7.89313 6.57553C7.89125 7.27217 8.16486 7.9413 8.65436 8.43698C9.14386 8.93266 9.8095 9.21467 10.5061 9.22153C10.8526 9.22311 11.1961 9.15642 11.5168 9.02524C11.8375 8.89406 12.1292 8.70098 12.3753 8.45703C12.6214 8.21308 12.817 7.92303 12.951 7.60345C13.085 7.28388 13.1547 6.94106 13.1561 6.59454C13.1553 5.89784 12.8789 5.22973 12.3873 4.73605C11.8957 4.24238 11.2298 3.96323 10.5331 3.95953Z" fill="#D2D2D2"/>
<path d="M20.845 6.07466C19.9635 4.65833 18.8277 3.41717 17.495 2.41368C16.1837 1.36625 14.6509 0.631614 13.013 0.265641C11.3751 -0.100332 9.67542 -0.0880024 8.04303 0.301683C6.34978 0.706249 4.75972 1.46005 3.37469 2.51479C1.98967 3.56953 0.840203 4.90195 0 6.42668V6.75566C0.063 6.86766 0.12204 6.98168 0.19104 7.09068C0.632398 7.7925 1.13431 8.45435 1.69104 9.06868C1.91604 9.31768 2.47905 9.64167 2.83405 9.24867C3.13405 8.92267 2.88302 8.38666 2.71002 8.19966C2.2857 7.74074 1.89372 7.2529 1.53699 6.73967C1.47699 6.65367 1.43002 6.58867 1.51202 6.47167C2.88298 4.38016 4.88693 2.78196 7.23102 1.91066C8.65141 1.38658 10.1754 1.20483 11.6792 1.38014C13.183 1.55546 14.6242 2.0829 15.886 2.91966C17.325 3.8342 18.5617 5.03347 19.52 6.44368C19.573 6.51968 19.637 6.57968 19.557 6.69368C18.1986 8.74063 16.2471 10.3236 13.964 11.2307C12.83 11.6561 11.6271 11.8677 10.416 11.8547C8.4481 11.833 6.53203 11.2209 4.91602 10.0977C4.76779 9.99087 4.58369 9.94625 4.40302 9.97334C4.22234 10.0004 4.05942 10.0971 3.94904 10.2427C3.89306 10.3169 3.85383 10.4025 3.83411 10.4933C3.81438 10.5842 3.81462 10.6783 3.83478 10.7691C3.85493 10.8598 3.89454 10.9452 3.95087 11.0192C4.00719 11.0932 4.07887 11.1541 4.16101 11.1977C5.48358 12.1258 6.99478 12.7504 8.58667 13.027C10.1786 13.3036 11.8119 13.2253 13.37 12.7977C14.9891 12.355 16.5032 11.5927 17.8231 10.5557C19.1429 9.51875 20.2418 8.22802 21.055 6.75966V6.43068C20.98 6.30968 20.916 6.18866 20.845 6.07466Z" fill="#D2D2D2"/>
</svg>
