<svg width="22" height="18" viewBox="0 0 22 18" fill="none" xmlns="http://www.w3.org/2000/svg">
<path fill-rule="evenodd" clip-rule="evenodd" d="M14.4701 9.59753C14.4664 10.6436 14.0483 11.6456 13.3074 12.384C12.5665 13.1225 11.5632 13.5373 10.5171 13.5375C9.47103 13.5336 8.46917 13.1152 7.7309 12.3741C6.99262 11.6331 6.57812 10.6296 6.57813 9.58353C6.58157 8.53747 6.99955 7.53545 7.74054 6.79709C8.48153 6.05873 9.48507 5.64426 10.5311 5.64453C11.5772 5.64797 12.5792 6.06602 13.3176 6.80701C14.0559 7.54799 14.4704 8.55147 14.4701 9.59753ZM10.5331 6.95953C9.83697 6.95924 9.16897 7.234 8.6745 7.72397C8.18003 8.21394 7.89919 8.87944 7.89313 9.57553C7.89125 10.2722 8.16486 10.9413 8.65436 11.437C9.14386 11.9327 9.8095 12.2147 10.5061 12.2215C10.8526 12.2231 11.1961 12.1564 11.5168 12.0252C11.8375 11.8941 12.1292 11.701 12.3753 11.457C12.6214 11.2131 12.817 10.923 12.951 10.6035C13.085 10.2839 13.1547 9.94106 13.1561 9.59454C13.1553 8.89784 12.8789 8.22973 12.3873 7.73605C11.8957 7.24238 11.2298 6.96323 10.5331 6.95953Z" fill="#D2D2D2"/>
<path d="M20.845 9.07466C19.9635 7.65833 18.8277 6.41717 17.495 5.41368C16.1837 4.36625 14.6509 3.63161 13.013 3.26564C11.3751 2.89967 9.67542 2.912 8.04303 3.30168C6.34978 3.70625 4.75972 4.46005 3.37469 5.51479C1.98967 6.56953 0.840203 7.90195 0 9.42668V9.75566C0.063 9.86766 0.12204 9.98168 0.19104 10.0907C0.632398 10.7925 1.13431 11.4544 1.69104 12.0687C1.91604 12.3177 2.47905 12.6417 2.83405 12.2487C3.13405 11.9227 2.88302 11.3867 2.71002 11.1997C2.2857 10.7407 1.89372 10.2529 1.53699 9.73967C1.47699 9.65367 1.43002 9.58867 1.51202 9.47167C2.88298 7.38016 4.88693 5.78196 7.23102 4.91066C8.65141 4.38658 10.1754 4.20483 11.6792 4.38014C13.183 4.55546 14.6242 5.0829 15.886 5.91966C17.325 6.8342 18.5617 8.03347 19.52 9.44368C19.573 9.51968 19.637 9.57968 19.557 9.69368C18.1986 11.7406 16.2471 13.3236 13.964 14.2307C12.83 14.6561 11.6271 14.8677 10.416 14.8547C8.4481 14.833 6.53203 14.2209 4.91602 13.0977C4.76779 12.9909 4.58369 12.9463 4.40302 12.9733C4.22234 13.0004 4.05942 13.0971 3.94904 13.2427C3.89306 13.3169 3.85383 13.4025 3.83411 13.4933C3.81438 13.5842 3.81462 13.6783 3.83478 13.7691C3.85493 13.8598 3.89454 13.9452 3.95087 14.0192C4.00719 14.0932 4.07887 14.1541 4.16101 14.1977C5.48358 15.1258 6.99478 15.7504 8.58667 16.027C10.1786 16.3036 11.8119 16.2253 13.37 15.7977C14.9891 15.355 16.5032 14.5927 17.8231 13.5557C19.1429 12.5187 20.2418 11.228 21.055 9.75966V9.43068C20.98 9.30968 20.916 9.18866 20.845 9.07466Z" fill="#D2D2D2"/>
<path d="M14.5 0.5C4.63139 22.8053 9 13 7 17.5" stroke="#D2D2D2"/>
</svg>
