<svg width="10" height="19" viewBox="0 0 10 19" fill="none" xmlns="http://www.w3.org/2000/svg">
<path fill-rule="evenodd" clip-rule="evenodd" d="M9.73999 6.95671L9.30096 10.3387H6.401V18.9997H2.91199V10.3387H0V6.96867H2.89996C2.89996 6.42367 2.88696 5.91967 2.89996 5.41667C2.88638 4.71222 2.92381 4.00768 3.01196 3.30863C3.13873 2.3947 3.59255 1.55774 4.28925 0.952799C4.98594 0.347853 5.87828 0.0158939 6.80096 0.0185949C7.80096 -0.0384051 8.80101 0.0516018 9.82501 0.0756018V3.15263C9.45801 3.15263 9.10299 3.15263 8.74799 3.15263C8.39299 3.15263 8.03 3.16063 7.672 3.18363C7.50627 3.17525 7.34062 3.2014 7.18549 3.26029C7.03035 3.31919 6.8891 3.40955 6.77069 3.5258C6.65228 3.64205 6.55924 3.78157 6.4975 3.93559C6.43576 4.08961 6.40666 4.25484 6.41199 4.42069C6.37499 5.24769 6.40399 6.07763 6.40399 6.95463L9.73999 6.95671Z" fill="#2B76D0"/>
</svg>
