<svg width="20" height="20" viewBox="0 0 20 20" fill="none" xmlns="http://www.w3.org/2000/svg">
<path fill-rule="evenodd" clip-rule="evenodd" d="M12.6776 14.82C13.1409 14.5268 13.5702 14.1832 13.9576 13.7951C14.4659 13.2612 14.8726 12.6388 15.1577 11.9589C15.174 11.913 15.188 11.8664 15.1997 11.8191H10.9206C10.3536 11.8191 10.1306 11.5981 10.1296 11.0371C10.1296 10.2651 10.1296 9.4926 10.1296 8.71993C10.1181 8.62578 10.1282 8.53037 10.1589 8.44064C10.1896 8.3509 10.2403 8.26923 10.3071 8.20187C10.3739 8.13451 10.4551 8.08322 10.5445 8.05172C10.634 8.02022 10.7293 8.00932 10.8236 8.01998C13.4149 8.01998 16.0063 8.01998 18.5976 8.01998C18.6884 8.00935 18.7804 8.01824 18.8675 8.04586C18.9546 8.07348 19.0349 8.11915 19.103 8.18014C19.1711 8.24113 19.2254 8.31604 19.2624 8.39962C19.2994 8.4832 19.3182 8.5736 19.3176 8.665C19.4997 10.0038 19.386 11.3663 18.9845 12.6565C18.5829 13.9466 17.9033 15.133 16.9936 16.132C16.3056 16.9241 15.4821 17.5875 14.5616 18.091L12.6776 14.82Z" fill="#2D7EE2"/>
<path fill-rule="evenodd" clip-rule="evenodd" d="M12.6781 14.823L14.5662 18.093C14.2927 18.2934 13.9929 18.4549 13.6752 18.573C12.691 19.0271 11.6324 19.2982 10.5511 19.373C8.76694 19.5415 6.97118 19.2063 5.36768 18.406C3.76417 17.6057 2.41707 16.3721 1.47913 14.845C1.40161 14.7584 1.34937 14.6523 1.32812 14.5381L4.58618 12.6699C4.94109 13.2388 5.37624 13.7535 5.87817 14.198C6.77756 14.9696 7.88966 15.4507 9.06787 15.5776C10.2461 15.7046 11.4351 15.4713 12.4781 14.9089C12.5359 14.8629 12.6049 14.8333 12.6781 14.823Z" fill="#28B44B"/>
<path fill-rule="evenodd" clip-rule="evenodd" d="M4.58797 12.6677L1.33003 14.5359C1.08704 14.2047 0.89427 13.8394 0.758009 13.4519C0.209597 12.1661 -0.0468684 10.7745 0.00703286 9.37769C0.0520754 7.849 0.466899 6.35407 1.21602 5.02075C1.24648 4.97274 1.27985 4.92671 1.31599 4.88281C2.03299 5.24581 2.71597 5.67375 3.41597 6.07275C3.81753 6.27886 4.2059 6.50979 4.57893 6.76392C4.30051 7.28448 4.08925 7.83817 3.95003 8.41187C3.62985 9.81688 3.84146 11.2907 4.54402 12.5488C4.56075 12.5877 4.57538 12.6273 4.58797 12.6677Z" fill="#FBD42C"/>
<path fill-rule="evenodd" clip-rule="evenodd" d="M4.57153 6.76503C4.19856 6.51051 3.81019 6.27926 3.40857 6.07289C2.70857 5.67289 2.03059 5.24595 1.30859 4.88295C1.55777 4.38698 1.87067 3.9259 2.2395 3.51113C3.84802 1.55308 6.16549 0.310387 8.68652 0.0540949C9.02225 0.0061236 9.3618 -0.0100438 9.70056 0.0059992C9.70056 1.26667 9.70056 2.52731 9.70056 3.78798C8.94908 3.79547 8.20551 3.94239 7.50757 4.22109C6.31279 4.7007 5.30763 5.55787 4.64551 6.662C4.62301 6.69785 4.59832 6.73228 4.57153 6.76503Z" fill="#F94831"/>
<path fill-rule="evenodd" clip-rule="evenodd" d="M9.70703 3.79052C9.70703 2.52985 9.70703 1.2692 9.70703 0.00853378C10.8557 -0.00587161 11.9968 0.195617 13.071 0.602528C14.1419 0.99971 15.1342 1.58291 16.0021 2.32543C16.0867 2.38243 16.1566 2.45847 16.2067 2.54735C16.2567 2.63623 16.2853 2.73551 16.2902 2.83739C16.295 2.93927 16.2761 3.04103 16.2347 3.13427C16.1934 3.2275 16.1308 3.30971 16.052 3.3745C15.4867 3.94183 14.9201 4.50845 14.3521 5.07445C14.2975 5.14019 14.2302 5.19435 14.1542 5.23339C14.0782 5.27243 13.9951 5.29567 13.9099 5.30175C13.8247 5.30782 13.7391 5.29641 13.6583 5.26854C13.5776 5.24067 13.5034 5.19698 13.4401 5.13964C12.4232 4.3053 11.155 3.83739 9.83997 3.81151C9.79522 3.80742 9.75086 3.80041 9.70703 3.79052Z" fill="#D43D2A"/>
</svg>
