<svg width="16" height="14" viewBox="0 0 16 14" fill="none" xmlns="http://www.w3.org/2000/svg">
<path fill-rule="evenodd" clip-rule="evenodd" d="M15.2139 5.08173C15.1709 5.30973 15.137 5.53873 15.084 5.76373C14.8827 6.6161 14.4471 7.39513 13.8262 8.01272C12.3175 9.55006 10.809 11.0871 9.30029 12.6237C8.90733 13.0515 8.36629 13.3142 7.78711 13.3585C7.20793 13.4029 6.63371 13.2257 6.18018 12.8627C6.08307 12.786 5.99158 12.7024 5.90625 12.6127C4.40692 11.0867 2.90692 9.56039 1.40625 8.03372C0.720867 7.35406 0.257957 6.48224 0.0791016 5.53372C0.0511016 5.38372 0.026 5.23373 0 5.08273V4.25073C0.0131734 4.20373 0.0237752 4.15597 0.03125 4.10773C0.129025 3.22678 0.479954 2.39311 1.04199 1.70773C1.43731 1.20728 1.93547 0.797654 2.50293 0.506591C3.07039 0.215527 3.69396 0.0498101 4.33105 0.0207202C5.14473 -0.0359025 5.95736 0.142144 6.67285 0.533721C6.99985 0.712721 7.30332 0.933732 7.63232 1.15173C7.67432 1.11773 7.73192 1.06674 7.79492 1.01874C8.31974 0.576527 8.94215 0.265385 9.61084 0.110991C10.2795 -0.0434026 10.9755 -0.0366267 11.6411 0.130736C12.4842 0.311436 13.2571 0.731698 13.8672 1.34103C14.4772 1.95037 14.8984 2.72286 15.0801 3.56573C15.1411 3.78873 15.1689 4.01974 15.2119 4.24774L15.2139 5.08173ZM14.2783 4.62775C14.2757 3.7167 13.9369 2.83863 13.3271 2.16174C12.9971 1.78777 12.593 1.48667 12.1401 1.27768C11.6873 1.06868 11.1955 0.956373 10.6968 0.947905C10.1981 0.939437 9.70334 1.03499 9.24365 1.22848C8.78396 1.42198 8.36936 1.70919 8.02686 2.07175C7.97999 2.14125 7.91679 2.19816 7.84277 2.23752C7.76876 2.27688 7.68637 2.29748 7.60254 2.29748C7.51871 2.29748 7.43632 2.27688 7.3623 2.23752C7.28829 2.19816 7.22509 2.14125 7.17822 2.07175C6.76323 1.62092 6.2369 1.28692 5.65234 1.10318C5.06779 0.919442 4.44546 0.892414 3.84717 1.02475C3.01434 1.20094 2.26828 1.66077 1.73682 2.32574C1.20535 2.99071 0.921389 3.81957 0.933105 4.67074C0.929848 5.16656 1.02549 5.65805 1.21436 6.11648C1.40323 6.57492 1.68164 6.9911 2.0332 7.34073C3.53987 8.87873 5.0478 10.4154 6.55713 11.9507C6.65253 12.0514 6.76021 12.1394 6.87793 12.2127C7.15506 12.3875 7.48602 12.457 7.81006 12.4088C8.1341 12.3605 8.42985 12.1976 8.64404 11.9497C10.1527 10.4164 11.6603 8.87941 13.167 7.33874C13.5243 6.98426 13.807 6.56165 13.998 6.09598C14.1891 5.6303 14.2838 5.13104 14.2783 4.62775Z" fill="#7B7B7B"/>
<path fill-rule="evenodd" clip-rule="evenodd" d="M13.3709 4.65863C13.3639 5.40689 13.0681 6.1235 12.545 6.65863C12.016 7.20763 11.4801 7.74965 10.9451 8.29165C10.904 8.34157 10.8528 8.38236 10.795 8.41143C10.7372 8.44051 10.6738 8.45724 10.6092 8.46054C10.5446 8.46383 10.48 8.45362 10.4195 8.43057C10.359 8.40752 10.3042 8.3721 10.2581 8.32662C10.2103 8.2809 10.1724 8.22555 10.1475 8.16421C10.1226 8.10287 10.1111 8.03695 10.1136 7.97079C10.1161 7.90463 10.1326 7.83975 10.1619 7.78042C10.1913 7.7211 10.2329 7.66869 10.284 7.62664C10.667 7.23264 11.0541 6.84164 11.4381 6.44964C11.6081 6.27664 11.7819 6.10763 11.9439 5.92663C12.1411 5.70526 12.2836 5.44062 12.3597 5.15408C12.4358 4.86754 12.4433 4.56713 12.3819 4.27709C12.3205 3.98706 12.1919 3.71551 12.0062 3.4844C11.8205 3.25329 11.5831 3.0691 11.3131 2.94665C11.0511 2.82865 10.9261 2.65865 10.9481 2.44665C10.9542 2.3711 10.9785 2.29813 11.0189 2.234C11.0593 2.16988 11.1147 2.11651 11.1803 2.07839C11.2458 2.04028 11.3194 2.01857 11.3951 2.01513C11.4708 2.01169 11.5464 2.02663 11.6151 2.05865C12.0283 2.22342 12.3953 2.48635 12.6842 2.8247C12.973 3.16306 13.1751 3.56665 13.273 4.00064C13.3173 4.21808 13.3499 4.43771 13.3709 4.65863Z" fill="#7B7B7B"/>
<path fill-rule="evenodd" clip-rule="evenodd" d="M9.90311 2.69482C9.90506 2.76595 9.89036 2.83655 9.86014 2.90097C9.82993 2.96539 9.78498 3.02185 9.72904 3.06583C9.60704 3.16583 9.48605 3.26581 9.36405 3.36581C9.27313 3.44383 9.15551 3.48347 9.03592 3.47638C8.91633 3.46929 8.80425 3.41603 8.72318 3.32782C8.68149 3.28538 8.64843 3.23511 8.62626 3.1799C8.60408 3.1247 8.59304 3.06562 8.59379 3.00613C8.59453 2.94665 8.6071 2.88792 8.63065 2.83328C8.6542 2.77865 8.68826 2.72919 8.73099 2.68781C8.87315 2.55099 9.02565 2.42528 9.18705 2.3118C9.25509 2.26115 9.33691 2.23224 9.42167 2.22885C9.50643 2.22546 9.59027 2.24776 9.66214 2.29282C9.73604 2.3304 9.79774 2.38803 9.84037 2.45914C9.88299 2.53024 9.90479 2.61194 9.90311 2.69482Z" fill="#7B7B7B"/>
</svg>
