<svg width="26" height="26" viewBox="0 0 26 26" fill="none" xmlns="http://www.w3.org/2000/svg">
<path fill-rule="evenodd" clip-rule="evenodd" d="M23.2278 15.3634V15.9224C23.2278 18.2557 23.2278 20.5921 23.2278 22.9314C23.2584 23.3306 23.2032 23.7317 23.0657 24.1077C22.9281 24.4837 22.7114 24.8258 22.4304 25.111C22.1494 25.3961 21.8107 25.6178 21.4368 25.7609C21.0628 25.9039 20.6625 25.9652 20.2629 25.9404C19.0109 25.9544 17.7581 25.9474 16.5051 25.9404C15.7611 25.9404 15.5051 25.6744 15.5051 24.9204C15.5051 23.0411 15.5051 21.1617 15.5051 19.2824C15.5051 18.2504 15.0208 17.7754 13.9748 17.7714C13.3482 17.7714 12.7216 17.7714 12.095 17.7714C10.977 17.7714 10.5139 18.2284 10.5129 19.3304C10.5129 21.1758 10.5129 23.0211 10.5129 24.8665C10.5129 25.6905 10.275 25.9374 9.46703 25.9404C8.24803 25.9404 7.0288 25.9494 5.8098 25.9404C5.40182 25.9725 4.99208 25.915 4.60863 25.772C4.22519 25.629 3.87745 25.4039 3.59008 25.1126C3.30271 24.8212 3.08226 24.4705 2.94457 24.0851C2.80688 23.6997 2.75503 23.2889 2.79271 22.8814C2.79271 20.562 2.79271 18.2427 2.79271 15.9233V15.3615C2.50971 15.3523 2.22779 15.3258 1.94799 15.2824C1.51842 15.2107 1.11799 15.018 0.794178 14.7268C0.470368 14.4356 0.236507 14.058 0.119862 13.6384C-0.021502 13.2173 -0.0380938 12.7643 0.0715218 12.3339C0.181137 11.9034 0.412471 11.5137 0.738026 11.2114C2.39936 9.54476 4.06275 7.88039 5.72875 6.21839C7.53675 4.41039 9.3809 2.63735 11.1389 0.782352C11.3833 0.535 11.6741 0.338518 11.9949 0.204227C12.3156 0.0699362 12.6598 0.000561233 13.0076 3.38747e-06C13.3553 -0.000554458 13.6996 0.0677922 14.0207 0.201053C14.3419 0.334314 14.634 0.529804 14.8791 0.776371C18.2641 4.23737 21.7038 7.64642 25.1428 11.0554C25.5322 11.3879 25.8077 11.8339 25.9304 12.3309C26.0531 12.828 26.0168 13.351 25.8269 13.8264C25.6563 14.3027 25.3323 14.7085 24.9055 14.9801C24.4787 15.2517 23.9736 15.3736 23.47 15.3264C23.3886 15.3336 23.3076 15.3459 23.2278 15.3634ZM17.0329 24.4034C18.2509 24.4034 19.3848 24.4304 20.5168 24.3934C20.6788 24.3891 20.8385 24.3524 20.9861 24.2856C21.1337 24.2189 21.2665 24.1234 21.3767 24.0046C21.4869 23.8859 21.5721 23.7463 21.6277 23.5941C21.6832 23.4419 21.7077 23.2802 21.6999 23.1184C21.7079 22.8814 21.6999 22.6444 21.6999 22.4074C21.6999 19.8674 21.6999 17.3274 21.6999 14.7874C21.6999 14.0704 21.966 13.8094 22.678 13.8014C23.016 13.8014 23.3581 13.8224 23.6931 13.7914C23.8461 13.7798 23.9931 13.7273 24.1189 13.6394C24.2447 13.5515 24.3444 13.4314 24.4079 13.2918C24.4715 13.1521 24.4966 12.9979 24.4802 12.8453C24.4638 12.6928 24.4064 12.5474 24.3147 12.4244C24.2208 12.3047 24.1172 12.1932 24.0041 12.0914C20.6161 8.7021 17.2275 5.31342 13.8381 1.92542C13.2041 1.29142 12.8087 1.29335 12.1687 1.93335L2.00316 12.0994C1.91916 12.1834 1.7869 12.2574 1.7639 12.3554C1.64165 12.6505 1.60074 12.9731 1.64574 13.2894C1.73874 13.5204 2.113 13.6564 2.385 13.7894C2.53331 13.8239 2.68722 13.828 2.83715 13.8014C4.23115 13.8014 4.31615 13.8884 4.31615 15.3014C4.31615 17.8754 4.31615 20.4494 4.31615 23.0234C4.29776 23.2062 4.31921 23.3907 4.37963 23.5641C4.44004 23.7375 4.53782 23.8956 4.66576 24.0273C4.7937 24.1591 4.94878 24.2613 5.12035 24.3268C5.29192 24.3923 5.47574 24.4194 5.65892 24.4064C6.43692 24.4264 7.21684 24.4114 7.99584 24.4124H8.98314V23.7835C8.98314 22.2085 8.97314 20.6335 8.98314 19.0595C8.97621 18.3219 9.26191 17.6118 9.77806 17.085C10.2942 16.5581 10.9986 16.2576 11.7361 16.2494C12.5821 16.2254 13.4301 16.2234 14.2761 16.2494C15.0137 16.2599 15.717 16.5627 16.2317 17.0912C16.7463 17.6197 17.0298 18.3307 17.0207 19.0684C17.0337 20.5584 17.0207 22.0485 17.0207 23.5385L17.0329 24.4034Z" fill="white"/>
</svg>
