<svg xmlns="http://www.w3.org/2000/svg" width="10.079" height="14.313" viewBox="0 0 10.079 14.313">
  <g id="Group_27" data-name="Group 27" transform="translate(-696.628 -230.159)">
    <path id="Path_65" data-name="Path 65" d="M701.938,230.159c.142.019.285.033.427.056a5.039,5.039,0,0,1,3.583,7.6c-1.257,2.132-2.54,4.249-3.812,6.372a.433.433,0,0,1-.81.011l-3.915-6.31a5.039,5.039,0,0,1,3.185-7.611c.258-.057.523-.079.784-.117Zm-.216,13.077c.022-.033.038-.055.052-.078q1.74-2.9,3.477-5.809a4.194,4.194,0,0,0-1.644-5.868,4,4,0,0,0-3.455-.2,4.191,4.191,0,0,0-2.029,6.163q1.758,2.836,3.518,5.67C701.665,243.153,701.692,243.19,701.723,243.236Z" fill="#7b7b7b" fill-rule="evenodd"/>
    <path id="Path_66" data-name="Path 66" d="M771.143,307.209a2.515,2.515,0,1,1,2.512-2.517A2.517,2.517,0,0,1,771.143,307.209Zm0-.836a1.68,1.68,0,1,0-1.678-1.676A1.675,1.675,0,0,0,771.139,306.374Z" transform="translate(-69.481 -69.504)" fill="#7b7b7b" fill-rule="evenodd"/>
  </g>
</svg>
