<svg width="14" height="21" viewBox="0 0 14 21" fill="none" xmlns="http://www.w3.org/2000/svg">
<path d="M6.89217 3.81447C6.08318 3.81179 5.30615 4.12938 4.73055 4.69786C4.15496 5.26634 3.82779 6.0395 3.8204 6.84847C3.81741 7.25232 3.89364 7.6528 4.04549 8.02702C4.19735 8.40125 4.42161 8.74189 4.70516 9.02947C4.98687 9.31583 5.32316 9.54297 5.69393 9.69753C6.0647 9.85209 6.46265 9.93094 6.86434 9.92946C7.26736 9.93126 7.66674 9.85348 8.03964 9.70058C8.41253 9.54768 8.75145 9.32268 9.03719 9.03847C9.3233 8.75553 9.55016 8.41848 9.70467 8.04695C9.85919 7.67542 9.93818 7.27685 9.9371 6.87447C9.93711 6.0655 9.61709 5.28945 9.04647 4.71602C8.47585 4.14259 7.70113 3.81844 6.89217 3.81447ZM8.39217 6.87346C8.39187 7.07188 8.3522 7.26827 8.27548 7.45125C8.19875 7.63423 8.08671 7.80018 7.9454 7.93947C7.80544 8.08191 7.63819 8.1952 7.45419 8.27278C7.27018 8.35037 7.07282 8.3907 6.87313 8.39147C6.4731 8.38552 6.09139 8.22383 5.80868 7.94075C5.52597 7.65767 5.36439 7.27551 5.35897 6.87547C5.36388 6.47492 5.52521 6.09209 5.80819 5.80855C6.09117 5.52501 6.47356 5.36317 6.87411 5.35747C7.27545 5.3616 7.65956 5.52247 7.94393 5.80571C8.2283 6.08896 8.39036 6.47214 8.39608 6.87346H8.39217Z" fill="#E35AC8"/>
<path d="M13.0126 15.778C12.6606 15.4769 12.2653 15.2307 11.8397 15.048C11.5587 14.924 10.8314 14.871 10.6034 15.397C10.2914 16.117 10.9516 16.353 11.3226 16.535C11.5932 16.669 11.8456 16.837 12.0736 17.035C12.1445 17.0841 12.1946 17.1579 12.2137 17.242C12.1968 17.3383 12.1452 17.4251 12.0687 17.486C11.674 17.8323 11.2043 18.0826 10.6966 18.217C9.46043 18.5972 8.17302 18.784 6.87974 18.771C5.55281 18.7854 4.23218 18.5844 2.96959 18.176C2.57153 18.0345 2.19269 17.8441 1.84166 17.609C1.66266 17.487 1.55462 17.359 1.55162 17.267C1.54862 17.175 1.65942 17.025 1.85142 16.883C2.39766 16.5032 3.01602 16.2398 3.66832 16.109C4.06832 16.009 4.49658 15.942 4.90758 15.875C5.30758 16.411 5.70759 16.953 6.17759 17.596C6.25158 17.7199 6.35472 17.824 6.47789 17.8993C6.60106 17.9746 6.74058 18.0187 6.88463 18.028C7.02728 18.0184 7.16555 17.9743 7.28746 17.8996C7.40937 17.8249 7.51099 17.7217 7.58433 17.599C7.99033 17.046 8.87863 15.873 8.88463 15.874C8.89063 15.875 10.3445 13.947 10.5135 13.732C11.2273 12.8537 11.8949 11.9388 12.5135 10.991C13.5488 9.48508 13.9638 7.63798 13.6717 5.83401C13.491 4.51541 12.9221 3.28034 12.0375 2.28598C11.1528 1.29162 9.9921 0.582909 8.70347 0.25C8.42494 0.170574 8.14115 0.110439 7.85435 0.0700073C7.72935 0.0490073 7.61054 0.030019 7.49254 0.00701904L7.45543 0H6.31431L6.2816 0.00601196L6.0023 0.052002C5.7943 0.085002 5.57961 0.120006 5.36461 0.169006C3.64228 0.559819 2.13623 1.59818 1.15855 3.069C0.160187 4.5755 -0.213143 6.41125 0.117536 8.18802C0.340211 9.3587 0.824606 10.4639 1.53453 11.421C2.04753 12.14 2.59056 12.852 3.11656 13.539C3.33256 13.821 3.55434 14.112 3.77134 14.399L3.83238 14.478C3.20674 14.5961 2.5954 14.7791 2.00767 15.024C1.38359 15.2574 0.829997 15.6472 0.399762 16.156C0.147387 16.4523 0.00631309 16.8274 0.000836675 17.2166C-0.00463974 17.6058 0.125551 17.9847 0.369489 18.288C0.607599 18.5934 0.896484 18.8556 1.22349 19.063C2.33913 19.6987 3.58016 20.0837 4.85972 20.191C5.11572 20.225 5.3744 20.251 5.6234 20.275L5.96568 20.31H5.98668H7.79674L7.83043 20.304L7.90855 20.288C7.93524 20.2815 7.96234 20.2765 7.98961 20.273C8.9647 20.2251 9.9308 20.0637 10.8685 19.792C11.6741 19.5922 12.4234 19.2112 13.0594 18.678C13.2694 18.5083 13.4406 18.2955 13.5614 18.054C13.6821 17.8124 13.7498 17.5479 13.7596 17.278C13.7581 16.9875 13.6899 16.7012 13.5604 16.4412C13.4309 16.1812 13.2435 15.9543 13.0126 15.778ZM3.28453 11.223C2.663 10.4471 2.17153 9.57543 1.82945 8.642C1.58426 7.92379 1.49458 7.16172 1.56578 6.40616C1.63697 5.6506 1.8675 4.91877 2.24254 4.259C2.6146 3.59986 3.12237 3.02725 3.73228 2.57904C4.3422 2.13083 5.04045 1.81722 5.78062 1.659C6.14177 1.57871 6.51076 1.53848 6.88072 1.539C8.08583 1.54955 9.25269 1.96339 10.1952 2.71448C11.1377 3.46557 11.8012 4.51065 12.0804 5.68301C12.2456 6.41324 12.2621 7.16929 12.1283 7.90591C11.9944 8.64254 11.7132 9.34457 11.3016 9.97C10.7786 10.798 10.1747 11.605 9.59166 12.385L9.32945 12.735C8.71745 13.555 8.08359 14.382 7.46959 15.181L6.89341 15.931L6.81773 15.831C6.53373 15.45 6.26765 15.09 5.98765 14.731C5.63965 14.278 5.28778 13.82 4.94078 13.377C4.38978 12.668 3.82653 11.943 3.28453 11.224V11.223Z" fill="#E35AC8"/>
</svg>
