<svg width="14" height="22" viewBox="0 0 14 22" fill="none" xmlns="http://www.w3.org/2000/svg">
<path d="M11.651 0H2.056C1.5108 0.000264984 0.987998 0.216964 0.602481 0.602481C0.216964 0.987998 0.000264984 1.5108 0 2.056L0 19.875C0.000264984 20.4202 0.216964 20.943 0.602481 21.3285C0.987998 21.714 1.5108 21.9307 2.056 21.931H11.651C12.1962 21.9307 12.719 21.714 13.1045 21.3285C13.49 20.943 13.7067 20.4202 13.707 19.875V2.056C13.7067 1.5108 13.49 0.987998 13.1045 0.602481C12.719 0.216964 12.1962 0.000264984 11.651 0ZM6.851 20.561C6.57993 20.5606 6.31506 20.4799 6.08986 20.329C5.86466 20.1781 5.68925 19.9638 5.58579 19.7133C5.48233 19.4627 5.45546 19.1871 5.50859 18.9213C5.56171 18.6555 5.69245 18.4114 5.88426 18.2199C6.07608 18.0283 6.32037 17.8979 6.58627 17.8452C6.85216 17.7925 7.12772 17.8197 7.37812 17.9236C7.62852 18.0274 7.84252 18.2031 7.99308 18.4285C8.14364 18.6539 8.224 18.9189 8.224 19.19C8.22426 19.37 8.18901 19.5483 8.12027 19.7147C8.05153 19.8811 7.95064 20.0323 7.82338 20.1597C7.69613 20.287 7.545 20.388 7.37866 20.4569C7.21232 20.5258 7.03403 20.5611 6.854 20.561H6.851ZM11.651 15.935C11.6505 16.0712 11.5962 16.2016 11.4999 16.2979C11.4036 16.3942 11.2732 16.4485 11.137 16.449H2.57C2.43384 16.4485 2.30341 16.3942 2.20713 16.2979C2.11085 16.2016 2.05653 16.0712 2.056 15.935V2.57C2.05653 2.43384 2.11085 2.30341 2.20713 2.20713C2.30341 2.11085 2.43384 2.05653 2.57 2.056H11.137C11.2732 2.05653 11.4036 2.11085 11.4999 2.20713C11.5962 2.30341 11.6505 2.43384 11.651 2.57V15.935Z" fill="#D1D1D1"/>
</svg>
