<svg xmlns="http://www.w3.org/2000/svg" width="21.094" height="24.019" viewBox="0 0 21.094 24.019">
  <g id="Group_47" data-name="Group 47" transform="translate(3386.657 -1019.362)">
    <path id="Path_23" data-name="Path 23" d="M-3369.34,1040.567c-.985,0-1.969.007-2.954,0a.391.391,0,0,0-.459.325,3.494,3.494,0,0,1-3.372,2.494,3.494,3.494,0,0,1-3.334-2.481c-.1-.3-.238-.338-.5-.337-1.922.007-3.845,0-5.767.007-.367,0-.7-.047-.867-.416a.807.807,0,0,1,.252-.928,11.132,11.132,0,0,0,2.967-7.772,17.77,17.77,0,0,1,.2-3.591,6.924,6.924,0,0,1,4.526-5.213.561.561,0,0,0,.438-.639,3.9,3.9,0,0,1,.082-1.116,2.093,2.093,0,0,1,2.2-1.526,1.954,1.954,0,0,1,1.877,1.876c-.031.966.368,1.325,1.188,1.738a7.027,7.027,0,0,1,4.028,6.535c.031,1.264,0,2.537.142,3.789a10.39,10.39,0,0,0,2.708,5.807c.052.058.134.107.154.174a2.09,2.09,0,0,1,.19.851c-.061.335-.4.433-.744.43C-3367.371,1040.562-3368.356,1040.567-3369.34,1040.567Zm-15.05-1.434h16.567c-.091-.145-.151-.246-.218-.344a12.307,12.307,0,0,1-2.193-6.762c-.024-1.015.015-2.033-.049-3.045a5.841,5.841,0,0,0-5.425-5.386,5.8,5.8,0,0,0-6.109,4.643,17.209,17.209,0,0,0-.146,3.127,12.678,12.678,0,0,1-2.292,7.534C-3384.3,1038.958-3384.328,1039.024-3384.39,1039.133Zm10.24,1.434h-3.908a2.039,2.039,0,0,0,1.9,1.4A2.071,2.071,0,0,0-3374.15,1040.567Zm-2.653-18.4h1.366c.021-.463.177-.957-.291-1.247a.865.865,0,0,0-.729-.021C-3376.962,1021.16-3376.786,1021.674-3376.8,1022.164Z" fill="#fff" fill-rule="evenodd"/>
    <path id="Path_24" data-name="Path 24" d="M-3386.568,1052.285a10.4,10.4,0,0,1,2.969-6.8.725.725,0,0,1,.922-.213.637.637,0,0,1,.337.792,1.086,1.086,0,0,1-.275.423,9.047,9.047,0,0,0-2.562,6.12,1.835,1.835,0,0,1-.047.418.644.644,0,0,1-.687.519.63.63,0,0,1-.652-.559A4.556,4.556,0,0,1-3386.568,1052.285Z" transform="translate(-0.071 -23.4)" fill="#fff" fill-rule="evenodd"/>
    <path id="Path_25" data-name="Path 25" d="M-3203.107,1052.316c0,.109,0,.219,0,.328.009.556-.228.884-.657.909s-.709-.289-.75-.83c-.032-.42-.048-.843-.108-1.259a8.935,8.935,0,0,0-2.413-4.924c-.043-.046-.088-.089-.129-.136a.716.716,0,0,1-.018-1.01.706.706,0,0,1,1.041.05,10.313,10.313,0,0,1,2.26,3.415A10.517,10.517,0,0,1-3203.107,1052.316Z" transform="translate(-162.456 -23.403)" fill="#fff" fill-rule="evenodd"/>
  </g>
</svg>
