<svg width="20" height="20" viewBox="0 0 20 20" fill="none" xmlns="http://www.w3.org/2000/svg">
<path fill-rule="evenodd" clip-rule="evenodd" d="M19.0042 9.25682C19.0042 9.20382 18.996 9.14985 18.991 9.09685C18.9955 9.07036 18.9983 9.04364 18.9998 9.01683C18.9998 6.59083 18.9998 4.16485 18.9998 1.73885C18.9996 1.51021 18.9488 1.28445 18.8509 1.07784C18.7134 0.749066 18.4788 0.470296 18.1781 0.279008C17.8774 0.0877201 17.5249 -0.00691942 17.1688 0.00782867C13.2128 0.00182867 9.2571 0.00784014 5.3011 0.000840141C5.05713 -0.00663789 4.81415 0.0358696 4.58723 0.125779C4.36032 0.215689 4.1544 0.351092 3.98177 0.523637C3.80913 0.696182 3.67336 0.902236 3.58333 1.12911C3.4933 1.35598 3.45049 1.59885 3.45784 1.84282C3.49084 3.04782 3.46512 4.25484 3.46712 5.46184C3.46712 6.68851 3.46929 7.91482 3.47395 9.14082C3.47395 9.20082 3.46614 9.26182 3.46614 9.32182C3.46614 10.7978 3.48826 12.2738 3.46126 13.7488C3.45939 13.9857 3.50427 14.2206 3.59407 14.4399C3.68387 14.6591 3.81669 14.8583 3.98421 15.0258C4.15172 15.1933 4.35092 15.3258 4.57014 15.4156C4.78937 15.5054 5.02416 15.5507 5.26106 15.5488C9.24306 15.5298 13.2248 15.5408 17.2078 15.5398C17.3354 15.5443 17.4633 15.536 17.5892 15.5148C17.9906 15.44 18.3523 15.2257 18.6112 14.91C18.87 14.5942 19.0095 14.1971 19.0042 13.7888C19.0072 12.2738 19.0042 10.7638 19.0042 9.25682ZM17.2728 13.6868C17.2728 13.7868 17.2411 13.8378 17.1341 13.8268C17.0938 13.8247 17.0533 13.8247 17.013 13.8268H5.44905C5.18205 13.8268 5.18196 13.8268 5.18196 13.5668C5.18196 12.1722 5.18196 10.7772 5.18196 9.38182C5.18196 9.30082 5.17715 9.22085 5.17415 9.13985C5.17415 8.68785 5.18001 8.23984 5.18001 7.78584C5.18001 5.84451 5.18001 3.90351 5.18001 1.96285C5.18001 1.79885 5.20087 1.73183 5.39387 1.73283C9.28254 1.7395 13.1715 1.7395 17.0609 1.73283C17.2549 1.73283 17.2738 1.79984 17.2728 1.96184C17.2688 4.25984 17.2688 6.55816 17.2728 8.85683C17.2728 8.93783 17.2732 9.01883 17.2782 9.09883C17.2782 10.3255 17.2758 11.5518 17.2718 12.7778C17.2698 13.0788 17.2678 13.3818 17.2728 13.6858V13.6868Z" fill="#FF968E"/>
<path fill-rule="evenodd" clip-rule="evenodd" d="M15.2891 17.266C10.8471 17.2726 6.4049 17.2756 1.9629 17.2749C1.7779 17.2749 1.72999 17.2279 1.72999 17.0429C1.73733 14.4816 1.7395 11.9202 1.73683 9.35891C1.73683 9.27191 1.73699 9.18391 1.72999 9.09691C1.72999 7.27225 1.73278 5.44758 1.73878 3.62291C1.73878 3.49891 1.70212 3.46191 1.57912 3.46291C1.12812 3.46891 0.679088 3.47391 0.226088 3.46291C0.0510883 3.46291 -0.000985927 3.50293 1.40733e-05 3.68493C0.00801407 5.42893 -0.000126552 7.17291 0.00587345 8.91591C0.00587345 8.97591 0.0121274 9.03691 0.0161274 9.09691C0.0201274 9.15691 0.0019672 9.20392 0.0019672 9.25692C0.0019672 11.9129 0.0019672 14.5686 0.0019672 17.2239C0.00262072 17.3789 0.023156 17.5332 0.0630024 17.6829C0.159501 18.073 0.387965 18.4175 0.709975 18.6578C1.03199 18.8981 1.42774 19.0194 1.82912 19.0009H15.2959C15.3229 18.9992 15.35 18.9992 15.377 19.0009C15.505 19.0179 15.5357 18.9559 15.5347 18.8369C15.5297 18.3989 15.5227 17.9599 15.5347 17.5229C15.5477 17.3219 15.4981 17.266 15.2891 17.266Z" fill="#FF968E"/>
<path fill-rule="evenodd" clip-rule="evenodd" d="M14.3373 9.93679C13.8843 9.36479 13.4615 8.76776 13.0375 8.17476C12.9375 8.03576 12.8913 8.05376 12.7983 8.17476C12.1003 9.08143 11.4007 9.98578 10.6987 10.8878C10.5517 11.0778 10.5556 11.0748 10.3876 10.8878C9.89562 10.3408 9.44623 9.75877 8.98723 9.18777C8.88723 9.06377 8.84455 9.05877 8.74455 9.18777C8.05655 10.0878 7.35943 10.9728 6.66643 11.8668C6.61643 11.9318 6.53247 11.9818 6.53947 12.0858H15.9726C15.9336 12.0298 15.9144 12.0028 15.8954 11.9768C15.3684 11.2998 14.8693 10.6068 14.3373 9.93679Z" fill="#FF968E"/>
</svg>
