<svg width="30" height="26" viewBox="0 0 30 26" fill="none" xmlns="http://www.w3.org/2000/svg">
<path d="M24.6039 15.5352C24.6139 15.415 24.5992 15.294 24.5607 15.1797C24.5222 15.0654 24.4607 14.9602 24.38 14.8706C24.2994 14.781 24.2013 14.7088 24.0917 14.6584C23.9821 14.6081 23.8634 14.5808 23.7428 14.5781C23.6202 14.582 23.4996 14.6107 23.3886 14.6628C23.2775 14.715 23.1784 14.7892 23.0971 14.8811C23.0158 14.973 22.9541 15.0807 22.9159 15.1973C22.8777 15.3138 22.8638 15.4369 22.8749 15.5591C22.8679 16.0411 22.8699 16.5331 22.8749 17.0081C22.8749 17.2234 22.8749 17.439 22.8749 17.655C22.8749 20.337 21.3259 21.875 18.6249 21.876C17.6899 21.876 16.7388 21.886 15.8178 21.895C14.8788 21.905 13.9078 21.9141 12.9528 21.9141C11.4388 21.9141 10.1978 21.8889 9.04482 21.8359C8.86382 21.8269 8.68789 21.823 8.52089 21.823C7.75191 21.7617 6.97947 21.8885 6.2704 22.1924C5.56134 22.4962 4.93687 22.9681 4.45082 23.5671C4.31223 23.7599 4.13097 23.918 3.92128 24.0293C3.7116 24.1406 3.47915 24.2021 3.24184 24.209C3.01106 24.2064 2.78376 24.1522 2.5768 24.05C2.28564 23.8951 2.04893 23.6549 1.89809 23.3616C1.74724 23.0683 1.68947 22.7359 1.73281 22.4089C1.73981 19.1719 1.73991 15.882 1.73891 12.7C1.73891 11.4833 1.73891 10.267 1.73891 9.05103C1.69478 8.50005 1.77094 7.94614 1.96205 7.42749C2.15317 6.90884 2.45451 6.43773 2.8456 6.04712C3.23668 5.65651 3.70806 5.35577 4.22695 5.16528C4.74583 4.9748 5.30005 4.8993 5.85097 4.94409H11.6439H15.0687C15.4012 4.96432 15.7284 4.85329 15.9799 4.63501C16.0534 4.55888 16.1105 4.46844 16.1478 4.36938C16.1852 4.27033 16.2019 4.16482 16.1969 4.05908C16.1869 3.29508 15.4258 3.21094 15.0968 3.21094H13.007C11.829 3.21094 10.6508 3.21094 9.4728 3.21094C7.9918 3.21094 6.75896 3.21095 5.59096 3.22095C4.85075 3.21181 4.11615 3.35167 3.43105 3.63208C2.74594 3.91249 2.12432 4.32777 1.60292 4.85327C1.08153 5.37877 0.670919 6.00388 0.395891 6.69116C0.120864 7.37845 -0.0130885 8.11388 0.00184832 8.854C0.00184832 10.454 0.00184832 12.0781 0.00184832 13.6541C0.00184832 14.3114 0.00184832 14.9683 0.00184832 15.625C0.00184832 16.339 0.00184832 17.0534 0.00184832 17.7681C0.00184832 19.4161 -0.00721222 21.1211 0.0147878 22.7961C0.00344253 23.3982 0.172025 23.9899 0.498919 24.4956C0.825812 25.0014 1.29611 25.3981 1.84975 25.635C2.37709 25.9051 2.97226 26.0146 3.56117 25.9497C4.15009 25.8848 4.70683 25.6484 5.16274 25.27C5.62994 24.9095 6.07336 24.5191 6.48989 24.1011C6.65133 23.9388 6.84508 23.8121 7.05849 23.7292C7.2719 23.6464 7.50023 23.6093 7.7289 23.6201H7.73989C10.1239 23.6291 12.245 23.634 14.226 23.634C15.883 23.634 17.4259 23.634 18.9379 23.624C20.3125 23.6701 21.6539 23.1962 22.6945 22.2969C23.7351 21.3975 24.3984 20.1388 24.5519 18.772C24.6338 17.9865 24.6564 17.1959 24.6198 16.407C24.6098 16.111 24.6099 15.8212 24.6039 15.5352Z" fill="white"/>
<path d="M28.3371 0.950932C28.0401 0.649765 27.6861 0.410819 27.2959 0.247563C26.9057 0.0843067 26.4869 6.69809e-05 26.0639 4.15722e-06C25.2431 -0.00133802 24.4551 0.322367 23.872 0.900151C20.649 4.07215 17.7661 6.96001 15.0551 9.72901C13.6751 11.1164 12.845 12.9571 12.719 14.9099C12.6357 15.4208 12.7425 15.9446 13.019 16.3821C13.1109 16.4621 13.2183 16.5223 13.3344 16.5591C13.4506 16.5959 13.5729 16.6084 13.6941 16.596H13.7942C15.9825 16.5593 18.0733 15.6855 19.6369 14.1541C22.2729 11.5541 25.1201 8.71311 28.3371 5.45411C28.6347 5.15952 28.871 4.80883 29.0322 4.42237C29.1934 4.03591 29.2763 3.62139 29.2763 3.20264C29.2763 2.7839 29.1934 2.36913 29.0322 1.98267C28.871 1.59621 28.6347 1.24552 28.3371 0.950932ZM26.976 4.37793L25.935 5.42115C23.496 7.86515 20.9751 10.392 18.4821 12.866C17.5128 13.8412 16.2608 14.4863 14.904 14.71L14.4641 14.7891L14.5581 14.3521C14.8219 12.9925 15.4831 11.7417 16.458 10.7581C18.984 8.22506 21.668 5.53911 24.906 2.30811C25.0586 2.13911 25.2434 2.00203 25.4494 1.90503C25.6554 1.80804 25.8787 1.75288 26.1062 1.74292C26.4723 1.74869 26.8215 1.89771 27.0791 2.15796C27.2194 2.28478 27.3324 2.43893 27.4113 2.61084C27.4903 2.78276 27.5334 2.96886 27.5381 3.15796C27.5319 3.38936 27.4789 3.61728 27.3823 3.82764C27.2857 4.03801 27.1475 4.22659 26.976 4.38208V4.37793Z" fill="white"/>
<path d="M5.50354 16.593C6.10354 16.611 6.70355 16.6198 7.28455 16.6198C7.89555 16.6198 8.50365 16.6098 9.09265 16.5898C9.20178 16.5881 9.30949 16.5646 9.4093 16.5204C9.50911 16.4763 9.59904 16.4125 9.67371 16.3329C9.75143 16.2484 9.81157 16.1492 9.85071 16.0412C9.88985 15.9332 9.90723 15.8185 9.90173 15.7038C9.89911 15.5906 9.87367 15.4793 9.82703 15.3762C9.78038 15.273 9.71325 15.1802 9.63001 15.1035C9.54676 15.0267 9.44901 14.9677 9.34241 14.9296C9.2358 14.8915 9.12265 14.8752 9.00964 14.8818C8.81864 14.8758 8.6096 14.873 8.3656 14.873H7.85071H7.33069H5.67859H5.59753C5.48015 14.8634 5.3621 14.878 5.25061 14.916C5.13912 14.9539 5.03671 15.0142 4.94959 15.0934C4.86246 15.1727 4.79259 15.269 4.74426 15.3764C4.69593 15.4838 4.67011 15.6002 4.66858 15.718C4.66429 15.8307 4.68259 15.943 4.72253 16.0485C4.76247 16.154 4.82339 16.2504 4.90125 16.332C4.97911 16.4136 5.07242 16.4785 5.1759 16.5234C5.27939 16.5682 5.39077 16.592 5.50354 16.593Z" fill="white"/>
<path d="M9.04692 11.9268C9.16508 11.9259 9.28188 11.9012 9.39042 11.8545C9.49896 11.8078 9.59687 11.7398 9.67875 11.6546C9.75605 11.5699 9.81574 11.4709 9.85404 11.3628C9.89235 11.2548 9.90863 11.1401 9.9019 11.0257C9.89868 10.9123 9.87246 10.8008 9.82499 10.6978C9.77752 10.5948 9.70962 10.5026 9.62553 10.4266C9.54144 10.3505 9.44294 10.2923 9.33573 10.2554C9.22853 10.2185 9.11484 10.2036 9.00175 10.2117C8.81075 10.2057 8.60185 10.2027 8.35185 10.2027H7.86674H7.37773H5.59281C5.47896 10.194 5.36466 10.2082 5.25639 10.2444C5.14812 10.2807 5.0481 10.3384 4.96244 10.4139C4.87679 10.4894 4.80718 10.5813 4.75761 10.6841C4.70804 10.787 4.67955 10.8987 4.67387 11.0127C4.666 11.1278 4.68148 11.2432 4.71928 11.3521C4.75708 11.461 4.8164 11.5613 4.89384 11.6468C4.97414 11.7319 5.0708 11.7998 5.17802 11.8467C5.28524 11.8936 5.40084 11.9185 5.51786 11.9197C6.66586 11.9617 7.85492 11.9618 9.04692 11.9268Z" fill="white"/>
</svg>
