<svg xmlns="http://www.w3.org/2000/svg" width="17.038" height="16.265" viewBox="0 0 17.038 16.265">
  <g id="Group_29" data-name="Group 29" transform="translate(3620.471 -896.566)">
    <path id="Path_50" data-name="Path 50" d="M-3603.434,911.306a1.13,1.13,0,0,0-.38-.781c-.245-.227-.495-.456-.737-.679l-.259-.238-1.791-1.646-.243-.224-1.117-1.026a1.062,1.062,0,0,0-.732-.3,1.145,1.145,0,0,0-.282.037,1.556,1.556,0,0,0-.32.133l-.032.016-.271-.25a6.058,6.058,0,0,0,1.234-4.328,6.079,6.079,0,0,0-.659-2.2,6.014,6.014,0,0,0-1.475-1.836,6.084,6.084,0,0,0-3.9-1.415,6.035,6.035,0,0,0-4.241,1.731,6.056,6.056,0,0,0-1.815,3.974,6.044,6.044,0,0,0,1.347,4.183,5.85,5.85,0,0,0,3.993,2.2,6.751,6.751,0,0,0,.766.045,6,6,0,0,0,4.062-1.593l.271.25a1.088,1.088,0,0,0-.123.692,1.178,1.178,0,0,0,.388.7c.432.382.863.782,1.28,1.169l.557.515.6.55c.554.51,1.127,1.038,1.692,1.554a1.105,1.105,0,0,0,.744.3,1.105,1.105,0,0,0,.821-.373l.238-.259.077-.084A1.133,1.133,0,0,0-3603.434,911.306Zm-5.927-8.668a4.97,4.97,0,0,1-1.459,3.545,5.008,5.008,0,0,1-3.564,1.489h-.011a5.025,5.025,0,0,1-5.045-4.853,5,5,0,0,1,1.407-3.682,5.005,5.005,0,0,1,3.634-1.543h0A5.053,5.053,0,0,1-3609.36,902.638Zm.252,5.2.057-.064c.089-.1.182-.2.277-.3a.312.312,0,0,1,.064-.04.378.378,0,0,1,.067.042c.381.349.768.7,1.142,1.049l.494.455,1.289,1.184,1.189,1.093a.255.255,0,0,1,.072.085.254.254,0,0,1-.065.093l-.063.069c-.074.081-.151.165-.227.246-.038.04-.062.051-.071.051s-.024,0-.07-.044l-.7-.643-.721-.665c-.166-.152-.336-.306-.5-.455-.18-.163-.366-.332-.548-.5-.333-.306-.67-.619-1-.921l-.487-.451-.081-.074c-.042-.037-.081-.072-.119-.109S-3609.146,907.883-3609.108,907.841Z" fill="#474747"/>
    <path id="Path_51" data-name="Path 51" d="M-3538,1144.354a3.027,3.027,0,0,1,.017-1.844.5.5,0,0,0-.048-.426.5.5,0,0,0-.5-.245.487.487,0,0,0-.425.344,4.311,4.311,0,0,0-.21,1.164v.017c0,.045,0,.09.007.136,0,.1.01.2.016.3a3.559,3.559,0,0,0,.2.932,3.444,3.444,0,0,0,.256.585c.123.216.264.422.4.622l.047.069a.427.427,0,0,0,.213.149.5.5,0,0,0,.175.031.507.507,0,0,0,.415-.213.525.525,0,0,0-.029-.636A2.918,2.918,0,0,1-3538,1144.354Z" transform="translate(-79.812 -240.781)" fill="#474747"/>
  </g>
</svg>
