<svg width="18" height="16" viewBox="0 0 18 16" fill="none" xmlns="http://www.w3.org/2000/svg">
<path d="M17.612 6.27197C16.396 5.12397 15.155 3.96198 13.956 2.83798L13.0688 2.00699C12.4341 1.41232 11.7993 0.817659 11.164 0.222992C11.0323 0.0869577 10.8532 0.00706903 10.664 0C10.5656 0.0013966 10.4683 0.0220969 10.3779 0.0609741C10.2426 0.112657 10.1273 0.20555 10.0478 0.326508C9.96827 0.447465 9.9288 0.590372 9.93498 0.734985C9.92998 0.873985 9.93498 1.01798 9.93498 1.15598C9.93498 1.21598 9.93498 1.27698 9.93498 1.33698V3.43698L9.84782 3.45999L9.77092 3.48099C9.71892 3.49499 9.6708 3.50799 9.6198 3.51999C8.4754 3.76594 7.36008 4.13127 6.29191 4.60999C4.49054 5.3849 2.96978 6.69289 1.934 8.358C0.799441 10.3225 0.138138 12.5244 0.00285223 14.789C-0.0115286 14.9437 0.028776 15.0984 0.116866 15.2264C0.204956 15.3543 0.335172 15.4472 0.484786 15.489C0.560884 15.5144 0.640632 15.5276 0.72087 15.528C0.844758 15.5266 0.966113 15.4926 1.07268 15.4294C1.17924 15.3662 1.26718 15.2761 1.3278 15.168C2.10705 13.956 3.17152 12.9534 4.4279 12.248C5.63772 11.5363 6.9622 11.0406 8.34196 10.783C8.66696 10.721 8.989 10.678 9.33 10.632C9.483 10.611 9.641 10.59 9.799 10.567L9.93278 10.547V10.927C9.93278 11.1357 9.93278 11.344 9.93278 11.552C9.93278 12.044 9.93278 12.552 9.93278 13.052C9.91416 13.2084 9.94682 13.3667 10.0258 13.503C10.1048 13.6393 10.2258 13.7463 10.3708 13.808C10.4619 13.8481 10.5603 13.8696 10.6598 13.871C10.8679 13.8617 11.064 13.7703 11.205 13.617C11.665 13.179 12.1369 12.738 12.5929 12.311L13.1518 11.788L14.1308 10.87L17.7138 7.51199C17.8358 7.4234 17.9247 7.29646 17.9662 7.15146C18.0077 7.00646 17.9995 6.85174 17.9428 6.71198C17.8643 6.54387 17.7517 6.39401 17.612 6.27197ZM11.394 11.472L11.3788 11.224C11.3788 11.187 11.379 11.156 11.372 11.124C11.372 11.07 11.3649 11.024 11.3649 10.982C11.3649 10.854 11.3649 10.725 11.3649 10.597C11.3649 10.353 11.3649 10.097 11.3649 9.853C11.3677 9.75126 11.3488 9.65009 11.3097 9.55612C11.2706 9.46216 11.2123 9.37751 11.1381 9.3078C11.064 9.23809 10.9758 9.18488 10.8796 9.15164C10.7834 9.11841 10.6814 9.10592 10.58 9.11499C7.92545 9.14566 5.33503 9.93542 3.11491 11.391C2.94091 11.505 2.76895 11.629 2.62395 11.736L2.54777 11.793C2.40999 11.9012 2.2635 11.9979 2.10979 12.082L1.86491 12.21L1.94279 11.946L1.99699 11.762C2.03499 11.63 2.07484 11.493 2.11784 11.362C2.59458 9.68731 3.57155 8.19819 4.91789 7.09399C6.07577 6.20302 7.40251 5.55661 8.81779 5.194C9.37579 5.038 9.951 4.91198 10.507 4.79398L10.707 4.75C10.8984 4.73199 11.075 4.63884 11.1979 4.49097C11.3209 4.34309 11.3802 4.15254 11.363 3.961C11.363 3.754 11.363 3.54299 11.363 3.33899C11.363 3.19599 11.363 3.05297 11.363 2.90997C11.363 2.85997 11.3628 2.80998 11.3698 2.75198C11.3698 2.72098 11.3699 2.686 11.3759 2.646L11.3898 2.39499L16.2338 6.935L11.394 11.472Z" fill="#7B7B7B"/>
</svg>
