<svg width="384" height="326" viewBox="0 0 384 326" fill="none" xmlns="http://www.w3.org/2000/svg">
<path fill-rule="evenodd" clip-rule="evenodd" d="M49.1635 310.214C40.8085 310.214 32.4525 310.169 24.0975 310.231C18.7565 310.269 15.6145 313.033 15.5555 317.535C15.4945 322.182 18.7546 325.171 24.2096 325.188C40.9206 325.238 57.6315 325.241 74.3425 325.185C79.5445 325.167 82.8635 322.202 82.9635 317.799C83.0665 313.295 79.6455 310.263 74.2305 310.228C65.8755 310.174 57.5195 310.213 49.1635 310.214ZM87.3515 266.181C79.8625 266.181 72.3725 266.155 64.8825 266.19C59.3965 266.214 56.1295 269.094 56.1735 273.761C56.2155 278.292 59.4015 281.148 64.6655 281.162C79.8945 281.201 95.1235 281.198 110.354 281.163C115.491 281.15 118.883 278.172 118.961 273.789C119.042 269.289 115.544 266.214 110.196 266.189C102.581 266.154 94.9665 266.18 87.3515 266.181Z" fill="white"/>
<path fill-rule="evenodd" clip-rule="evenodd" d="M383.951 290.9C383.299 293.141 382.706 295.403 381.983 297.622C376.507 314.436 361.473 325.314 343.354 325.348C310.489 325.41 277.624 325.36 244.759 325.335C202.147 325.304 159.535 325.259 116.924 325.187C115.068 325.184 113.138 325.13 111.373 324.635C107.927 323.669 106.038 320.478 106.388 316.814C106.709 313.456 109.217 310.794 112.638 310.361C114.117 310.173 115.631 310.217 117.129 310.216C144.621 310.209 172.112 310.211 199.605 310.211C200.965 310.211 202.327 310.211 204.653 310.211C203.252 309.183 202.55 308.669 201.848 308.155C193.505 302.042 184.674 296.488 176.915 289.706C158.103 273.262 139.826 256.205 121.211 239.533C119.724 238.201 117.294 237.266 115.296 237.256C87.4296 237.11 59.5636 237.157 31.6966 237.153C30.3226 237.153 28.9416 237.19 27.5766 237.066C23.5676 236.699 20.8166 233.865 20.6496 230.025C20.4836 226.194 22.9876 223.082 26.9406 222.407C28.4046 222.156 29.9246 222.169 31.4196 222.168C53.2876 222.154 75.1567 222.162 97.0247 222.15C98.3317 222.15 99.6377 222.04 101.771 221.943C99.2077 219.555 97.2617 217.699 95.2707 215.893C74.0777 196.668 52.8107 177.524 31.6947 158.213C6.63766 135.301 11.2077 96.9105 40.7937 80.2325C41.9897 79.5595 43.1726 78.0255 43.4596 76.6975C52.1786 36.3915 83.5437 6.80848 124.113 0.886482C128.056 0.310482 132.073 0.120454 136.063 0.00745352C141.029 -0.133546 143.411 1.71546 144.794 6.44846C146.263 11.4755 147.524 16.5695 149.129 21.5525C156.067 43.1035 178.124 55.7225 200.064 50.3425C212.758 47.2305 224.326 48.4475 234.642 56.9415C239.689 61.0975 242.987 66.4485 245.321 72.5085C259.759 109.989 274.312 147.427 288.677 184.936C294.631 200.482 305.326 210.603 321.297 215.4C332.146 218.658 343.235 221.397 352.818 227.911C370.087 239.647 380.367 255.745 383.304 276.473C383.386 277.051 383.73 277.592 383.951 278.152C383.951 282.401 383.951 286.65 383.951 290.9ZM105.514 130.475C111.565 137.096 117.464 143.535 123.347 149.989C127.555 154.606 131.856 159.145 135.898 163.905C138.611 167.096 138.182 171.344 135.298 174.049C132.38 176.784 128.298 176.817 125.118 174.045C124.087 173.147 123.201 172.079 122.274 171.066C99.0856 145.706 75.8757 120.365 52.7627 94.9355C50.9047 92.8915 49.4647 92.5165 47.1037 93.9335C37.4317 99.7395 31.8756 108.197 30.7476 119.378C29.5296 131.437 34.5786 140.757 43.4036 148.728C91.6276 192.277 139.703 235.99 187.871 279.601C206.991 296.914 229.385 308.018 255.11 309.314C285.155 310.829 315.314 310.264 345.423 310.234C355.706 310.223 365.238 302.287 367.31 292.901C365.887 292.901 364.561 292.901 363.234 292.901C347.613 292.901 331.99 293.08 316.372 292.869C263.487 292.154 218.379 273.006 181.172 235.381C177.659 231.829 174.336 228.087 171.005 224.361C167.521 220.465 167.441 216.047 170.674 213.031C174.019 209.912 178.484 210.429 182.2 214.399C184.249 216.587 186.128 218.954 188.309 221C195.77 228.002 203.296 234.936 210.902 241.779C211.749 242.542 213.531 243.217 214.413 242.841C224.245 238.634 233.986 234.213 243.974 229.75C242.965 227.937 242.33 226.753 241.659 225.592C220.638 189.294 199.642 152.983 178.572 116.715C172.695 106.598 170.018 95.8155 172.654 84.3585C174.109 78.0375 177.027 72.0535 179.372 65.6835C167.601 63.2175 156.81 57.6235 147.949 48.4755C138.964 39.2005 134.541 27.6625 131.783 15.4915C119.799 15.5645 103.265 21.0995 93.9066 28.0225C129.133 53.8895 130.526 101.602 105.514 130.475ZM255.038 139.434C251.64 140.969 248.62 142.404 245.544 143.705C241.063 145.601 236.788 144.199 235.026 140.353C233.166 136.29 234.937 132.154 239.547 129.969C242.791 128.432 246.077 126.984 249.628 125.368C246.874 118.253 244.235 111.412 241.573 104.581C241.264 103.788 240.837 103.042 240.415 102.174C237.523 103.468 234.81 104.728 232.059 105.899C227.292 107.929 223.099 106.607 221.281 102.556C219.446 98.4675 221.21 94.4975 225.923 92.2475C228.92 90.8175 231.953 89.4655 235.154 87.9935C233.821 84.4695 232.667 81.3205 231.443 78.1995C225.371 62.7085 209.897 58.9005 197.316 69.7885C185.807 79.7485 183.503 95.1915 191.587 109.181C212.758 145.816 233.984 182.418 255.196 219.03C255.744 219.974 256.383 220.866 257.24 222.183C265.714 216.666 274.024 211.256 281.837 206.171C277.55 196.307 273.542 187.089 269.469 177.718C267.689 178.494 265.886 179.315 264.058 180.072C259.453 181.98 255.381 180.699 253.521 176.787C251.6 172.745 253.354 168.639 257.959 166.406C260.036 165.398 262.118 164.4 264.309 163.343C261.134 155.159 258.13 147.408 255.038 139.434ZM228.371 253.42C229.152 254.037 229.491 254.38 229.893 254.611C250.597 266.507 272.72 274.831 296.537 276.427C319.79 277.986 343.182 277.484 366.513 277.871C366.988 277.879 367.464 277.702 368.242 277.554C368.068 276.384 367.988 275.287 367.738 274.232C362.864 253.65 350.23 240.26 330.151 233.844C317.004 229.643 303.329 226.651 292.668 216.669C272.488 231.248 251.214 243.384 228.371 253.42ZM81.0037 38.0635C70.1777 48.7905 62.9126 61.3125 59.0976 75.8945C58.5226 78.0935 58.8486 79.5245 60.3936 81.1915C71.2466 92.9115 81.9986 104.725 92.7566 116.532C93.4886 117.336 94.0117 118.33 94.6587 119.275C115.093 96.2485 111.477 56.4175 81.0037 38.0635Z" fill="#00D6FF"/>
<path fill-rule="evenodd" clip-rule="evenodd" d="M0 271.404C2.228 267.36 5.60199 265.864 10.218 266.11C15.822 266.409 21.454 266.14 27.074 266.194C32.274 266.244 35.486 269.169 35.467 273.707C35.447 278.246 32.254 281.117 27.025 281.166C21.406 281.219 15.774 280.959 10.169 281.248C5.55201 281.486 2.162 280.025 0 275.903C0 274.403 0 272.903 0 271.404Z" fill="#00D6FF"/>
<path fill-rule="evenodd" clip-rule="evenodd" d="M49.1635 310.213C57.5185 310.213 65.8745 310.174 74.2305 310.228C79.6465 310.263 83.0665 313.295 82.9635 317.799C82.8635 322.201 79.5455 325.167 74.3425 325.185C57.6315 325.241 40.9206 325.238 24.2096 325.188C18.7536 325.17 15.4945 322.182 15.5555 317.535C15.6145 313.033 18.7565 310.269 24.0975 310.231C32.4525 310.169 40.8085 310.214 49.1635 310.213Z" fill="#00D6FF"/>
<path fill-rule="evenodd" clip-rule="evenodd" d="M87.3503 266.182C94.9653 266.181 102.579 266.155 110.194 266.191C115.542 266.215 119.04 269.291 118.959 273.791C118.881 278.174 115.488 281.152 110.352 281.165C95.1233 281.2 79.8943 281.203 64.6643 281.164C59.3993 281.149 56.2143 278.294 56.1723 273.763C56.1283 269.096 59.3953 266.216 64.8813 266.192C72.3713 266.156 79.8603 266.182 87.3503 266.182Z" fill="#00D6FF"/>
<path fill-rule="evenodd" clip-rule="evenodd" d="M152.783 200.967C148.734 200.86 145.506 197.54 145.531 193.513C145.557 189.435 149.209 185.902 153.245 186.051C157.212 186.197 160.496 189.629 160.469 193.601C160.441 197.811 157.03 201.08 152.783 200.967Z" fill="#00D6FF"/>
</svg>
