<svg xmlns="http://www.w3.org/2000/svg" width="20.307" height="20.312" viewBox="0 0 20.307 20.312">
  <g id="Group_35" data-name="Group 35" transform="translate(1637.998 -384.775)">
    <path id="Path_81" data-name="Path 81" d="M-1638,394.921a10.161,10.161,0,0,1,10.3-10.146,10.193,10.193,0,0,1,10.011,10.2,10.141,10.141,0,0,1-10.2,10.111A10.113,10.113,0,0,1-1638,394.921Zm10.152,8.475a8.517,8.517,0,0,0,8.457-8.463,8.5,8.5,0,0,0-8.462-8.454,8.5,8.5,0,0,0-8.457,8.458A8.515,8.515,0,0,0-1627.846,403.4Z" fill="#00d6ff" fill-rule="evenodd"/>
    <path id="Path_82" data-name="Path 82" d="M-1533.32,605.539a5.012,5.012,0,0,1-4.812-3.495.833.833,0,0,1,.489-1.122.832.832,0,0,1,1.107.56,3.313,3.313,0,0,0,3.023,2.338,3.327,3.327,0,0,0,3.37-2.247.908.908,0,0,1,.741-.7.833.833,0,0,1,.919,1.1,4.918,4.918,0,0,1-4.077,3.493C-1532.809,605.511-1533.066,605.516-1533.32,605.539Z" transform="translate(-94.529 -204.665)" fill="#00d6ff" fill-rule="evenodd"/>
    <path id="Path_83" data-name="Path 83" d="M-1540.293,481.015a1.668,1.668,0,0,1,1.675,1.7,1.674,1.674,0,0,1-1.694,1.681,1.673,1.673,0,0,1-1.687-1.714A1.671,1.671,0,0,1-1540.293,481.015Z" transform="translate(-90.923 -91.152)" fill="#00d6ff" fill-rule="evenodd"/>
    <path id="Path_84" data-name="Path 84" d="M-1412.338,484.4a1.672,1.672,0,0,1-1.677-1.7,1.668,1.668,0,0,1,1.717-1.683,1.67,1.67,0,0,1,1.664,1.709A1.675,1.675,0,0,1-1412.338,484.4Z" transform="translate(-212.14 -91.151)" fill="#00d6ff" fill-rule="evenodd"/>
  </g>
</svg>
