<svg width="27" height="27" viewBox="0 0 27 27" fill="none" xmlns="http://www.w3.org/2000/svg">
<path fill-rule="evenodd" clip-rule="evenodd" d="M2.20742 14.3693C0.88042 12.0313 1.18529 10.0253 3.02529 8.87929C3.8125 8.39126 4.75734 8.22469 5.66396 8.4142C6.57058 8.60372 7.3696 9.13486 7.89541 9.89736C8.17495 10.3079 8.36722 10.7715 8.46035 11.2594C8.55348 11.7473 8.54532 12.2489 8.43667 12.7335C8.32802 13.2182 8.12125 13.6754 7.82876 14.0768C7.53627 14.4782 7.16428 14.8154 6.73623 15.0673C7.05781 15.5998 7.33488 16.158 7.56435 16.7362C7.70651 17.353 7.79715 17.9804 7.83535 18.6122H9.72524C10.1185 18.56 10.5186 18.6077 10.8886 18.7509C11.2585 18.894 11.5865 19.128 11.8422 19.4313C12.0979 19.7346 12.273 20.0976 12.3515 20.4865C12.43 20.8753 12.4094 21.2777 12.2914 21.6564H14.1244C14.0269 21.3438 13.9958 21.0142 14.0333 20.6889C14.0709 20.3635 14.1763 20.0494 14.3424 19.7672C14.5405 19.4136 14.8301 19.1201 15.1811 18.9174C15.532 18.7146 15.9311 18.6103 16.3363 18.6154C17.0863 18.6034 17.8363 18.6154 18.6493 18.6154C18.5659 17.9889 18.623 17.3517 18.8166 16.7501C19.0101 16.1485 19.3352 15.5976 19.7682 15.1373C19.189 14.8125 18.7085 14.3372 18.3769 13.7619C18.0453 13.1865 17.8751 12.5323 17.8844 11.8683C17.8869 10.9666 18.2412 10.1016 18.8722 9.45742C19.4923 8.80595 20.3339 8.40998 21.2311 8.3478C22.1283 8.28561 23.0164 8.56153 23.7204 9.12123C24.0999 9.42862 24.4137 9.80919 24.6435 10.2401C24.8732 10.6711 25.0143 11.1436 25.058 11.63C25.1017 12.1164 25.0473 12.6069 24.8981 13.0719C24.7489 13.5369 24.5079 13.9671 24.1894 14.3373C24.2964 14.4103 24.4014 14.4843 24.5094 14.5553C25.0796 14.895 25.5501 15.3789 25.8739 15.9581C26.1978 16.5374 26.3636 17.1918 26.3544 17.8554C26.3704 20.3554 26.3614 22.8554 26.3544 25.3554C26.3544 26.0494 26.0834 26.3234 25.3944 26.3244C17.2611 26.3244 9.12762 26.3244 0.994285 26.3244C0.311285 26.3244 0.0443576 26.0463 0.0433576 25.3463C0.0433576 23.0693 0.0872208 20.7903 0.0282208 18.5143C-0.0691693 17.6842 0.086832 16.8442 0.475731 16.1044C0.864629 15.3646 1.46843 14.7597 2.20742 14.3693ZM1.59243 24.7443H5.16933V23.1493C4.41748 22.8978 3.79162 22.3657 3.42226 21.6642C3.13697 20.9462 3.03837 20.1677 3.1354 19.4013C3.13199 19.2981 3.14956 19.1952 3.18716 19.099C3.22475 19.0028 3.2814 18.9155 3.3539 18.8419C3.42641 18.7684 3.51315 18.7102 3.60879 18.6713C3.70443 18.6323 3.80705 18.6134 3.9103 18.6154C4.01322 18.618 4.11465 18.6408 4.20864 18.6828C4.30263 18.7248 4.38733 18.7851 4.45791 18.86C4.52849 18.935 4.58349 19.0232 4.61977 19.1195C4.65606 19.2159 4.67293 19.3184 4.66933 19.4213C4.68333 19.7113 4.66933 20.0033 4.66933 20.2943C4.6528 20.4832 4.67791 20.6734 4.74306 20.8515C4.80822 21.0295 4.91175 21.191 5.04629 21.3246C5.18083 21.4582 5.34312 21.5605 5.52163 21.6244C5.70014 21.6883 5.89049 21.7121 6.07925 21.6942C7.34525 21.7012 8.6123 21.6942 9.8793 21.6942C10.4733 21.6942 10.8324 21.3944 10.8324 20.9254C10.8324 20.4564 10.4733 20.1594 9.88027 20.1564C8.99027 20.1564 8.10035 20.1564 7.21035 20.1564C6.47935 20.1564 6.21535 19.8934 6.21035 19.1764C6.21035 18.6974 6.22327 18.2174 6.20327 17.7394C6.1759 17.1429 5.91876 16.5801 5.48574 16.1688C5.05272 15.7576 4.47742 15.5299 3.88027 15.5333C3.29061 15.5324 2.7236 15.76 2.29824 16.1684C1.87289 16.5767 1.62229 17.1341 1.59927 17.7233C1.56927 20.0483 1.59243 22.3753 1.59243 24.7443ZM24.8092 24.7594C24.8092 22.3594 24.8393 20.0153 24.7973 17.6723C24.7647 17.0829 24.5034 16.5295 24.069 16.1298C23.6346 15.7301 23.0614 15.5158 22.4713 15.5324C21.8839 15.5416 21.3221 15.7741 20.9 16.1828C20.478 16.5914 20.2275 17.1455 20.1994 17.7323C20.1784 18.2323 20.1993 18.7253 20.1913 19.2213C20.1823 19.8743 19.9073 20.1463 19.2433 20.1503C18.3023 20.1563 17.3603 20.1443 16.4193 20.1503C16.3123 20.1403 16.2045 20.1526 16.1024 20.1864C16.0004 20.2202 15.9065 20.2747 15.8266 20.3466C15.7466 20.4184 15.6823 20.506 15.6378 20.6039C15.5934 20.7018 15.5697 20.808 15.5683 20.9154C15.5691 21.023 15.5922 21.129 15.6361 21.2272C15.6801 21.3253 15.7439 21.4133 15.8236 21.4855C15.9033 21.5577 15.9973 21.6126 16.0993 21.6466C16.2013 21.6807 16.3093 21.6931 16.4164 21.6832C17.7514 21.6922 19.0864 21.6962 20.4164 21.6832C20.5885 21.6889 20.7598 21.6594 20.9201 21.5966C21.0804 21.5337 21.2264 21.4389 21.3488 21.3178C21.4712 21.1967 21.5676 21.0519 21.6322 20.8922C21.6968 20.7326 21.728 20.5615 21.7243 20.3893C21.7373 20.0303 21.7034 19.6684 21.7394 19.3124C21.7412 19.2169 21.7621 19.1226 21.8009 19.0353C21.8397 18.948 21.8955 18.8694 21.9652 18.8041C22.035 18.7388 22.1173 18.6884 22.2069 18.6554C22.2966 18.6225 22.3918 18.6076 22.4872 18.6122C22.5826 18.6025 22.6789 18.6129 22.7702 18.6422C22.8614 18.6716 22.9455 18.7196 23.0172 18.7831C23.089 18.8466 23.1469 18.9242 23.1872 19.0111C23.2274 19.0981 23.2494 19.1924 23.2514 19.2882C23.2989 19.8335 23.2836 20.3824 23.2062 20.9242C23.1173 21.4382 22.8872 21.9175 22.5414 22.308C22.1956 22.6985 21.7479 22.985 21.2484 23.1354V24.7504L24.8092 24.7594ZM6.75332 23.2594V24.7514H19.6413V23.2594H6.75332ZM21.4933 13.9862C21.7635 13.9834 22.0306 13.9273 22.279 13.8209C22.5274 13.7146 22.7523 13.5602 22.9408 13.3666C23.1294 13.173 23.2778 12.9441 23.3776 12.693C23.4774 12.4419 23.5266 12.1734 23.5224 11.9032C23.5156 11.3664 23.2983 10.8538 22.9174 10.4755C22.5364 10.0972 22.0221 9.88337 21.4853 9.88027C21.2151 9.87974 20.9476 9.93257 20.6979 10.0358C20.4482 10.139 20.2214 10.2907 20.0304 10.4818C19.8395 10.673 19.6881 10.8998 19.5851 11.1496C19.4821 11.3993 19.4295 11.6672 19.4303 11.9374C19.4306 12.2076 19.4841 12.4749 19.588 12.7243C19.692 12.9737 19.8443 13.2001 20.036 13.3905C20.2277 13.5809 20.4551 13.7316 20.7052 13.8339C20.9553 13.9361 21.2231 13.9878 21.4933 13.9862ZM6.97329 11.9164C6.97186 11.6462 6.9171 11.3789 6.81191 11.13C6.70672 10.8811 6.55329 10.6553 6.3605 10.466C6.16771 10.2766 5.93914 10.1274 5.68838 10.0268C5.43761 9.92606 5.16952 9.87586 4.89931 9.87929C4.3624 9.88767 3.85016 10.1064 3.4728 10.4884C3.09544 10.8705 2.88302 11.3853 2.88125 11.9223C2.87967 12.1926 2.93155 12.4606 3.03384 12.7108C3.13613 12.9611 3.28695 13.1885 3.47744 13.3803C3.66793 13.5721 3.89443 13.7245 4.14394 13.8285C4.39346 13.9325 4.66098 13.986 4.9313 13.9862C5.20144 13.9852 5.46864 13.9307 5.71767 13.8261C5.96671 13.7214 6.19271 13.5686 6.38247 13.3764C6.57223 13.1841 6.72223 12.9561 6.82363 12.7057C6.92503 12.4553 6.97579 12.1865 6.97329 11.9164Z" fill="white"/>
<path fill-rule="evenodd" clip-rule="evenodd" d="M9.34602 7.75176C7.87202 7.61376 7.29312 6.97868 7.29012 5.57768C7.29012 4.37768 7.28112 3.17769 7.29012 1.98369C7.26362 1.71721 7.29668 1.44818 7.38704 1.19609C7.47739 0.944001 7.62284 0.715145 7.81258 0.52617C8.00232 0.337194 8.23175 0.192896 8.48421 0.103562C8.73666 0.014228 9.00568 -0.0180061 9.27205 0.0095681C11.8907 0.0095681 14.5096 0.0095681 17.1283 0.0095681C17.3946 -0.0177116 17.6636 0.0147615 17.9158 0.104295C18.1681 0.193828 18.3972 0.338338 18.5867 0.52739C18.7763 0.716443 18.9214 0.945257 19.0116 1.19731C19.1017 1.44937 19.1348 1.71829 19.1082 1.98467C19.1192 3.18467 19.1082 4.38466 19.1082 5.57866C19.1082 6.97866 18.5321 7.60873 17.0521 7.75273C17.0521 8.11073 17.0521 8.47873 17.0521 8.84673C17.0747 9.0177 17.0433 9.19132 16.9622 9.34355C16.8812 9.49578 16.7546 9.61889 16.6002 9.6956C16.442 9.76442 16.2662 9.78224 16.0975 9.74638C15.9288 9.71053 15.7757 9.62284 15.6593 9.49565C15.0063 8.96965 14.3451 8.45368 13.6981 7.92168C13.6329 7.85516 13.5552 7.80224 13.4693 7.76616C13.3835 7.73008 13.2912 7.71147 13.1981 7.71147C13.1049 7.71147 13.0129 7.73008 12.9271 7.76616C12.8412 7.80224 12.7633 7.85516 12.6981 7.92168C12.0511 8.45468 11.3902 8.97065 10.7362 9.49565C10.6193 9.62225 10.4657 9.70922 10.297 9.74419C10.1282 9.77915 9.95283 9.76044 9.79524 9.69072C9.64107 9.61353 9.51483 9.49007 9.43416 9.33769C9.35349 9.18532 9.32222 9.01152 9.34505 8.84062C9.34805 8.48962 9.34602 8.13376 9.34602 7.75176ZM15.4322 7.40679C15.6402 6.26078 15.742 6.17658 16.763 6.17558C16.8486 6.1691 16.9346 6.1691 17.0201 6.17558C17.4711 6.24258 17.5781 6.01071 17.5731 5.60771C17.5577 4.44438 17.5577 3.28075 17.5731 2.11675C17.5731 1.71675 17.4731 1.53779 17.0211 1.54179C14.4711 1.56113 11.9212 1.56113 9.37117 1.54179C8.97117 1.54179 8.82515 1.67675 8.83015 2.07475C8.84615 3.20375 8.83004 4.33367 8.83504 5.46367C8.83504 6.17067 8.8352 6.17068 9.5472 6.17168C10.6742 6.17168 10.7362 6.22173 10.9732 7.37773C12.4402 5.73673 13.9292 5.68779 15.4322 7.40679Z" fill="white"/>
<path fill-rule="evenodd" clip-rule="evenodd" d="M13.2533 3.09242C13.8863 3.09242 14.5195 3.08542 15.1535 3.09242C15.2601 3.08008 15.368 3.08984 15.4706 3.12123C15.5732 3.15263 15.6683 3.20492 15.7497 3.2748C15.8311 3.34467 15.8972 3.43059 15.9438 3.52724C15.9904 3.62388 16.0165 3.7291 16.0204 3.83632C16.0242 3.94814 16.0035 4.05962 15.9601 4.16274C15.9167 4.26585 15.8516 4.35826 15.769 4.43373C15.6864 4.5092 15.5885 4.56579 15.4819 4.59975C15.3753 4.6337 15.2626 4.64406 15.1515 4.63027C13.8515 4.63827 12.5514 4.63827 11.2514 4.63027C11.1399 4.644 11.0268 4.63339 10.9198 4.59902C10.8129 4.56464 10.7148 4.50741 10.6322 4.43129C10.5497 4.35517 10.4845 4.26212 10.4416 4.15834C10.3986 4.05457 10.3789 3.94268 10.3835 3.83046C10.3877 3.72319 10.414 3.61774 10.4609 3.52114C10.5077 3.42453 10.5741 3.33871 10.6557 3.26894C10.7373 3.19917 10.8323 3.14712 10.935 3.11586C11.0377 3.08461 11.1457 3.07481 11.2524 3.0873C11.9224 3.0853 12.5863 3.09242 13.2533 3.09242Z" fill="white"/>
</svg>
