<svg xmlns="http://www.w3.org/2000/svg" width="12.531" height="12.531" viewBox="0 0 12.531 12.531">
  <g id="Group_26" data-name="Group 26" transform="translate(-578.8 -244.159)">
    <path id="Path_63" data-name="Path 63" d="M584.7,244.159h.734a.666.666,0,0,0,.094.02,5.962,5.962,0,0,1,2.734.862,6.184,6.184,0,0,1,2.973,4.305c.044.235.066.474.1.711v.734q-.015.132-.03.264a6.287,6.287,0,0,1-5.973,5.626,5.957,5.957,0,0,1-3.456-.873A6.173,6.173,0,0,1,578.9,251.5c-.044-.235-.066-.474-.1-.711v-.734c.01-.088.02-.176.03-.264a6.285,6.285,0,0,1,5.156-5.537C584.222,244.215,584.461,244.191,584.7,244.159Zm.368.973a5.292,5.292,0,1,0,5.292,5.29A5.295,5.295,0,0,0,585.066,245.132Z" fill="#7b7b7b" fill-rule="evenodd"/>
    <path id="Path_64" data-name="Path 64" d="M768.64,340.973c0,.42,0,.84,0,1.26a.187.187,0,0,0,.088.171c.543.4,1.083.812,1.625,1.217a.485.485,0,1,1-.548.8c-.275-.2-.543-.4-.813-.607-.359-.269-.715-.541-1.077-.806a.567.567,0,0,1-.248-.49c0-.934,0-1.868,0-2.8a.488.488,0,1,1,.973-.015C768.642,340.125,768.64,340.549,768.64,340.973Z" transform="translate(-183.087 -92.116)" fill="#7b7b7b" fill-rule="evenodd"/>
  </g>
</svg>
