<svg width="16" height="20" viewBox="0 0 16 20" fill="none" xmlns="http://www.w3.org/2000/svg">
<path fill-rule="evenodd" clip-rule="evenodd" d="M8.00363 19.1448C6.75992 19.2042 5.51343 19.1298 4.28563 18.9228C3.21887 18.7765 2.20055 18.3849 1.31063 17.7788C0.885895 17.4875 0.5428 17.0923 0.314017 16.6309C0.0852337 16.1695 -0.0216211 15.6572 0.00362845 15.1428C0.0311721 13.2832 0.71149 11.4925 1.92563 10.0838C1.9783 10.0011 2.04808 9.93067 2.13027 9.87723C2.21246 9.8238 2.30515 9.78862 2.40209 9.77402C2.49903 9.75943 2.59797 9.76577 2.69225 9.79264C2.78653 9.81951 2.87395 9.86627 2.94863 9.92978C3.02324 9.99312 3.08355 10.0716 3.12556 10.16C3.16756 10.2484 3.19031 10.3447 3.1923 10.4425C3.19428 10.5404 3.17546 10.6375 3.13707 10.7276C3.09869 10.8176 3.04161 10.8984 2.96963 10.9648C2.04842 12.0396 1.4939 13.3802 1.38663 14.7918C1.28654 15.276 1.3748 15.7801 1.63342 16.2015C1.89205 16.6228 2.30159 16.9298 2.77863 17.0598C3.86554 17.5219 5.03454 17.76 6.21563 17.7598C7.60963 17.7878 9.00763 17.7808 10.4006 17.7078C11.4774 17.6727 12.533 17.3995 13.4916 16.9078C13.8462 16.7502 14.1427 16.4859 14.3399 16.1518C14.5371 15.8176 14.6251 15.4303 14.5916 15.0438C14.5321 13.6003 14.0061 12.215 13.0926 11.0958C13.0446 11.0368 12.9926 10.9808 12.9466 10.9208C12.8828 10.853 12.8335 10.7729 12.8017 10.6855C12.7699 10.598 12.7562 10.505 12.7615 10.412C12.7669 10.3191 12.7911 10.2283 12.8327 10.145C12.8743 10.0617 12.9325 9.9878 13.0036 9.92777C13.0728 9.86471 13.1547 9.81732 13.2439 9.78879C13.333 9.76027 13.4272 9.75129 13.5202 9.76249C13.6131 9.77369 13.7025 9.80479 13.7823 9.85367C13.8621 9.90256 13.9304 9.96807 13.9826 10.0458C14.4114 10.6 14.7991 11.1849 15.1426 11.7958C15.7224 12.9149 15.9983 14.1666 15.9426 15.4258C15.9233 15.9371 15.7738 16.4351 15.5084 16.8725C15.2429 17.31 14.8703 17.6725 14.4256 17.9258C13.4885 18.5114 12.4264 18.8678 11.3256 18.9658C10.2256 19.0898 9.11463 19.1378 8.00863 19.2198L8.00363 19.1448Z" fill="#D2D2D2"/>
<path fill-rule="evenodd" clip-rule="evenodd" d="M13.2144 5.25304C13.2118 6.28984 12.9017 7.30258 12.3233 8.16308C11.745 9.02357 10.9243 9.69316 9.96528 10.0871C9.00623 10.481 7.95188 10.5816 6.93566 10.376C5.91943 10.1705 4.98702 9.66813 4.25642 8.93248C3.52582 8.19684 3.02987 7.26101 2.83134 6.2434C2.63281 5.22579 2.74062 4.17213 3.14113 3.21581C3.54164 2.25949 4.21685 1.44351 5.08129 0.871083C5.94574 0.298651 6.96058 -0.00449719 7.99736 5.04242e-05C9.3852 0.00666624 10.7138 0.563357 11.6918 1.54809C12.6697 2.53281 13.2173 3.86519 13.2144 5.25304ZM4.10336 5.23107C4.10159 5.99621 4.32662 6.74469 4.75001 7.38201C5.1734 8.01933 5.77616 8.51687 6.48217 8.81182C7.18818 9.10676 7.96576 9.18591 8.7167 9.03917C9.46764 8.89244 10.1582 8.52642 10.7013 7.98742C11.2444 7.44841 11.6155 6.76055 11.7678 6.01073C11.9202 5.26091 11.8469 4.48278 11.5573 3.77459C11.2676 3.06639 10.7746 2.45993 10.1404 2.03179C9.50629 1.60364 8.75949 1.37302 7.99436 1.36907C7.48516 1.3667 6.9805 1.46476 6.50924 1.65764C6.03799 1.85053 5.60939 2.13444 5.24799 2.49315C4.88658 2.85187 4.59946 3.27836 4.40305 3.74816C4.20664 4.21796 4.1048 4.72187 4.10336 5.23107Z" fill="#D2D2D2"/>
</svg>
